<svg id="instagram" width="15" height="16" viewBox="0 0 15 16" fill="none" xmlns="http://www.w3.org/2000/svg">
    <path d="M4.41068 0C1.98955 0 0 2.11927 0 4.70473V11.2953C0 13.8778 1.98682 16 4.41068 16H10.5893C13.0105 16 15 13.8807 15 11.2953V4.70545C15 2.12218 13.0132 0 10.5893 0H4.41068ZM4.41068 1.45455H10.5893C10.9896 1.45397 11.3861 1.53765 11.756 1.70078C12.1259 1.86391 12.4621 2.1033 12.7451 2.40522C13.0282 2.70714 13.2526 3.06567 13.4055 3.46026C13.5585 3.85485 13.6369 4.27775 13.6364 4.70473V11.2953C13.6369 11.7223 13.5585 12.1452 13.4055 12.5397C13.2526 12.9343 13.0282 13.2929 12.7451 13.5948C12.4621 13.8967 12.1259 14.1361 11.756 14.2992C11.3861 14.4624 10.9896 14.546 10.5893 14.5455H4.41136C4.01101 14.5461 3.61447 14.4625 3.24446 14.2994C2.87446 14.1363 2.53826 13.897 2.25514 13.595C1.97201 13.2931 1.74753 12.9345 1.59455 12.5399C1.44157 12.1453 1.3631 11.7223 1.36364 11.2953V4.70545C1.36301 4.27841 1.44139 3.85543 1.59429 3.46076C1.74718 3.06609 1.97159 2.70748 2.25465 2.40548C2.53771 2.10348 2.87386 1.86403 3.24383 1.70085C3.61381 1.53767 4.01033 1.45397 4.41068 1.45455ZM11.5268 3.04582C11.4456 3.04543 11.3651 3.06221 11.29 3.09519C11.2149 3.12817 11.1466 3.17669 11.0892 3.23795C11.0318 3.29921 10.9863 3.372 10.9554 3.45212C10.9245 3.53224 10.9087 3.61809 10.9091 3.70473C10.9091 4.07127 11.1832 4.36364 11.5268 4.36364C11.6081 4.36412 11.6887 4.34741 11.7638 4.31447C11.839 4.28154 11.9074 4.23304 11.9649 4.17176C12.0224 4.11049 12.0679 4.03767 12.0989 3.9575C12.1298 3.87734 12.1456 3.79143 12.1452 3.70473C12.1456 3.61803 12.1298 3.53211 12.0989 3.45195C12.0679 3.37179 12.0224 3.29896 11.9649 3.23769C11.9074 3.17642 11.839 3.12791 11.7638 3.09498C11.6887 3.06205 11.6081 3.04534 11.5268 3.04582ZM7.5 3.63636C5.25 3.63636 3.40909 5.6 3.40909 8C3.40909 10.4 5.25 12.3636 7.5 12.3636C9.75 12.3636 11.5909 10.4 11.5909 8C11.5909 5.6 9.75 3.63636 7.5 3.63636ZM7.5 5.09091C9.01568 5.09091 10.2273 6.38327 10.2273 8C10.2273 9.61673 9.01568 10.9091 7.5 10.9091C5.98432 10.9091 4.77273 9.61673 4.77273 8C4.77273 6.38327 5.98432 5.09091 7.5 5.09091Z" fill="#b7B5ad"/>
</svg>