<svg id="linkedin" width="15" height="16" viewBox="0 0 15 16" fill="none" xmlns="http://www.w3.org/2000/svg">
    <path d="M1.88786 5.50911e-07C1.64007 -0.000190527 1.39467 0.0493254 1.16568 0.14572C0.936688 0.242114 0.728593 0.383499 0.55328 0.561797C0.377967 0.740095 0.238871 0.951813 0.143937 1.18486C0.0490042 1.4179 9.37531e-05 1.66771 0 1.92C0 2.98182 0.845 3.86182 1.88571 3.86182C2.92786 3.86182 3.77357 2.98182 3.77357 1.92146C3.77376 1.66919 3.72512 1.41937 3.63044 1.18626C3.53576 0.953143 3.39689 0.741312 3.22176 0.56287C3.04664 0.384427 2.8387 0.242871 2.60982 0.146291C2.38094 0.0497108 2.13561 4.78522e-07 1.88786 5.50911e-07ZM11.0964 5.09091C9.51143 5.09091 8.605 5.93455 8.16929 6.77382H8.12357V5.31709H5V16H8.255V10.712C8.255 9.31855 8.35786 7.97164 10.0514 7.97164C11.7207 7.97164 11.745 9.56073 11.745 10.8V16H15V10.1324C15 7.26109 14.3936 5.09091 11.0964 5.09091ZM0.259286 5.31636V16H3.51643V5.31636H0.259286Z" fill="#b7B5ad"/>
</svg>