<svg id="twitter" width="16" height="13" viewBox="0 0 16 13" fill="none" xmlns="http://www.w3.org/2000/svg">
    <path d="M16 1.54213C15.4009 1.80721 14.7654 1.98085 14.1147 2.05721C14.7997 1.6472 15.3124 1.00238 15.5573 0.242745C14.913 0.624388 14.2086 0.893871 13.474 1.0397C13.024 0.558829 12.4396 0.224418 11.7969 0.0799495C11.1542 -0.0645192 10.4829 -0.0123618 9.87019 0.229639C9.25753 0.47164 8.73188 0.892289 8.36161 1.43689C7.99134 1.98149 7.79356 2.62484 7.794 3.2833C7.794 3.54117 7.82267 3.79105 7.88067 4.03027C6.57501 3.96604 5.29754 3.62754 4.13152 3.03682C2.96551 2.44611 1.9371 1.61645 1.11333 0.601907C0.820651 1.10267 0.667136 1.6725 0.668667 2.25245C0.668667 3.38991 1.24667 4.39477 2.12933 4.98315C1.60797 4.96662 1.09817 4.8254 0.642667 4.57135V4.61333C0.642216 5.37108 0.904286 6.10562 1.38434 6.6921C1.8644 7.27858 2.53281 7.68082 3.276 7.83046C2.79271 7.96294 2.28541 7.98254 1.79333 7.88777C2.00294 8.53966 2.41103 9.10983 2.96059 9.51865C3.51015 9.92745 4.17374 10.1545 4.85867 10.168C4.17776 10.7022 3.39814 11.0969 2.56443 11.3296C1.73072 11.5623 0.859285 11.6284 0 11.524C1.50035 12.4891 3.24716 13.0015 5.03133 13C11.07 13 14.3727 7.99971 14.3727 3.66311C14.3727 3.52318 14.3673 3.37925 14.362 3.23865C15.0037 2.77424 15.5582 2.20012 16 1.54279V1.54213Z" fill="#b7B5ad"/>
</svg>