<svg id="bunena" width="144" height="32" viewBox="0 0 144 32" fill="none" xmlns="http://www.w3.org/2000/svg">
    <path d="M0.5 30.5091V0.989136H12.0005C13.7635 0.989136 15.2668 1.3513 16.5105 2.07564C17.7678 2.79997 18.7245 3.75663 19.3805 4.94563C20.0502 6.12097 20.385 7.39197 20.385 8.75863C20.385 10.3576 19.975 11.7585 19.155 12.9611C18.335 14.1638 17.228 14.9906 15.834 15.4416L15.793 14.4371C17.6927 14.9428 19.1687 15.8721 20.221 17.2251C21.2733 18.5781 21.7995 20.1908 21.7995 22.0631C21.7995 23.7851 21.4442 25.2748 20.7335 26.5321C20.0365 27.7895 19.0252 28.7666 17.6995 29.4636C16.3875 30.1606 14.8295 30.5091 13.0255 30.5091H0.5ZM4.19 27.0241H12.3285C13.4218 27.0241 14.399 26.826 15.26 26.4296C16.121 26.0196 16.7975 25.4456 17.2895 24.7076C17.7952 23.9696 18.048 23.0813 18.048 22.0426C18.048 21.045 17.8225 20.1498 17.3715 19.3571C16.9342 18.5645 16.3123 17.9358 15.506 17.4711C14.7133 16.9928 13.7908 16.7536 12.7385 16.7536H4.19V27.0241ZM4.19 13.3096H11.9595C12.8342 13.3096 13.62 13.1251 14.317 12.7561C15.0277 12.3735 15.588 11.8405 15.998 11.1571C16.4217 10.4738 16.6335 9.6743 16.6335 8.75863C16.6335 7.48764 16.203 6.44897 15.342 5.64264C14.481 4.8363 13.3535 4.43314 11.9595 4.43314H4.19V13.3096Z" fill="#d2d1cc"/>
    <path d="M34.6998 31.0831C33.2784 31.0831 32.0553 30.8576 31.0303 30.4066C30.0189 29.9556 29.1784 29.3543 28.5088 28.6026C27.8391 27.851 27.3129 27.0173 26.9303 26.1016C26.5476 25.186 26.2743 24.2498 26.1103 23.2931C25.9599 22.3365 25.8848 21.4413 25.8848 20.6076V8.36914H29.5748V19.4596C29.5748 20.4983 29.6704 21.5028 29.8618 22.4731C30.0531 23.4435 30.3743 24.3181 30.8253 25.0971C31.2899 25.8761 31.9049 26.4911 32.6703 26.9421C33.4493 27.3931 34.4196 27.6186 35.5813 27.6186C36.4969 27.6186 37.3306 27.4615 38.0823 27.1471C38.8339 26.8328 39.4763 26.3681 40.0093 25.7531C40.5423 25.1245 40.9523 24.3318 41.2393 23.3751C41.5263 22.4185 41.6698 21.3046 41.6698 20.0336L44.0683 20.7716C44.0683 22.9036 43.6788 24.7418 42.8998 26.2861C42.1344 27.8305 41.0479 29.0195 39.6403 29.8531C38.2463 30.6731 36.5994 31.0831 34.6998 31.0831ZM42.0798 30.5091V24.5846H41.6698V8.36914H45.3393V30.5091H42.0798Z" fill="#d2d1cc"/>
    <path d="M67.2534 30.5091V19.4186C67.2534 18.3663 67.1578 17.355 66.9664 16.3846C66.7888 15.4143 66.4676 14.5465 66.0029 13.7811C65.5519 13.0021 64.9369 12.3871 64.1579 11.9361C63.3926 11.4851 62.4223 11.2596 61.2469 11.2596C60.3313 11.2596 59.4976 11.4168 58.7459 11.7311C58.0079 12.0318 57.3724 12.4965 56.8394 13.1251C56.3064 13.7538 55.8896 14.5465 55.5889 15.5031C55.3019 16.4461 55.1584 17.56 55.1584 18.8446L52.7599 18.1066C52.7599 15.961 53.1426 14.1228 53.9079 12.5921C54.6869 11.0478 55.7734 9.86564 57.1674 9.04564C58.5751 8.21197 60.2288 7.79514 62.1284 7.79514C63.5634 7.79514 64.7866 8.02064 65.7979 8.47164C66.8093 8.92264 67.6498 9.52397 68.3194 10.2756C68.9891 11.0136 69.5153 11.8473 69.8979 12.7766C70.2806 13.6923 70.5471 14.6285 70.6974 15.5851C70.8615 16.5281 70.9435 17.4233 70.9435 18.2706V30.5091H67.2534ZM51.4684 30.5091V8.36914H54.7484V14.2936H55.1584V30.5091H51.4684Z" fill="#d2d1cc"/>
    <path d="M86.0769 31.1241C83.9039 31.1241 82.0043 30.6458 80.3779 29.6891C78.7653 28.7188 77.5079 27.3726 76.6059 25.6506C75.7039 23.915 75.2529 21.8923 75.2529 19.5826C75.2529 17.1636 75.6971 15.0726 76.5854 13.3096C77.4738 11.533 78.7106 10.1663 80.2959 9.20964C81.8949 8.2393 83.7673 7.75414 85.9129 7.75414C88.1406 7.75414 90.0334 8.26664 91.5914 9.29164C93.1631 10.3166 94.3384 11.779 95.1174 13.6786C95.9101 15.5783 96.2518 17.8401 96.1424 20.4641H92.4524V19.1521C92.4114 16.4325 91.8579 14.403 90.7919 13.0636C89.7259 11.7106 88.1406 11.0341 86.0359 11.0341C83.7809 11.0341 82.0658 11.7585 80.8904 13.2071C79.7151 14.6558 79.1274 16.7331 79.1274 19.4391C79.1274 22.0495 79.7151 24.0721 80.8904 25.5071C82.0658 26.9421 83.7399 27.6596 85.9129 27.6596C87.3753 27.6596 88.6463 27.3248 89.7259 26.6551C90.8056 25.9855 91.6529 25.022 92.2679 23.7646L95.7734 24.9741C94.9124 26.9285 93.6141 28.4455 91.8784 29.5251C90.1564 30.5911 88.2226 31.1241 86.0769 31.1241ZM77.8974 20.4641V17.5326H94.2564V20.4641H77.8974Z" fill="#d2d1cc"/>
    <path d="M116.28 30.5091V19.4186C116.28 18.3663 116.185 17.355 115.993 16.3846C115.816 15.4143 115.495 14.5465 115.03 13.7811C114.579 13.0021 113.964 12.3871 113.185 11.9361C112.42 11.4851 111.449 11.2596 110.274 11.2596C109.358 11.2596 108.525 11.4168 107.773 11.7311C107.035 12.0318 106.399 12.4965 105.866 13.1251C105.333 13.7538 104.917 14.5465 104.616 15.5031C104.329 16.4461 104.185 17.56 104.185 18.8446L101.787 18.1066C101.787 15.961 102.17 14.1228 102.935 12.5921C103.714 11.0478 104.8 9.86564 106.194 9.04564C107.602 8.21197 109.256 7.79514 111.155 7.79514C112.59 7.79514 113.814 8.02064 114.825 8.47164C115.836 8.92264 116.677 9.52397 117.346 10.2756C118.016 11.0136 118.542 11.8473 118.925 12.7766C119.308 13.6923 119.574 14.6285 119.724 15.5851C119.888 16.5281 119.97 17.4233 119.97 18.2706V30.5091H116.28ZM100.495 30.5091V8.36914H103.775V14.2936H104.185V30.5091H100.495Z" fill="#d2d1cc"/>
    <path d="M132.004 31.1241C130.35 31.1241 128.963 30.8235 127.842 30.2221C126.735 29.6071 125.895 28.8008 125.321 27.8031C124.76 26.8055 124.48 25.7121 124.48 24.5231C124.48 23.3615 124.699 22.357 125.136 21.5096C125.587 20.6486 126.216 19.938 127.022 19.3776C127.828 18.8036 128.792 18.3526 129.913 18.0246C130.965 17.7376 132.14 17.4916 133.439 17.2866C134.751 17.068 136.076 16.8698 137.416 16.6921C138.755 16.5145 140.005 16.3436 141.167 16.1796L139.855 16.9381C139.896 14.9701 139.5 13.5146 138.666 12.5716C137.846 11.6286 136.425 11.1571 134.402 11.1571C133.063 11.1571 131.887 11.4646 130.876 12.0796C129.878 12.681 129.175 13.665 128.765 15.0316L125.3 13.9861C125.833 12.0455 126.865 10.5216 128.396 9.41464C129.926 8.30764 131.942 7.75414 134.443 7.75414C136.452 7.75414 138.174 8.1163 139.609 8.84064C141.058 9.5513 142.096 10.631 142.725 12.0796C143.039 12.763 143.238 13.5078 143.32 14.3141C143.402 15.1068 143.443 15.9405 143.443 16.8151V30.5091H140.204V25.1996L140.962 25.6916C140.128 27.482 138.96 28.835 137.457 29.7506C135.967 30.6663 134.149 31.1241 132.004 31.1241ZM132.557 28.0696C133.869 28.0696 135.003 27.8373 135.96 27.3726C136.93 26.8943 137.71 26.2725 138.297 25.5071C138.885 24.7281 139.267 23.8808 139.445 22.9651C139.65 22.2818 139.759 21.5233 139.773 20.6896C139.8 19.8423 139.814 19.1931 139.814 18.7421L141.085 19.2956C139.896 19.4596 138.728 19.6168 137.58 19.7671C136.432 19.9175 135.345 20.0815 134.32 20.2591C133.295 20.4231 132.373 20.6213 131.553 20.8536C130.951 21.045 130.384 21.291 129.851 21.5916C129.332 21.8923 128.908 22.2818 128.58 22.7601C128.266 23.2248 128.109 23.8056 128.109 24.5026C128.109 25.104 128.259 25.678 128.56 26.2246C128.874 26.7713 129.352 27.2155 129.995 27.5571C130.651 27.8988 131.505 28.0696 132.557 28.0696Z" fill="#d2d1cc"/>
</svg>