<svg id="coinise" width="165" height="35" viewBox="0 0 165 35" fill="none" xmlns="http://www.w3.org/2000/svg">
    <path d="M17.0138 34.4725C13.9338 34.4725 11.1471 33.7978 8.65377 32.4485C6.18976 31.0698 4.25376 29.1925 2.84576 26.8165C1.43776 24.4112 0.733765 21.7125 0.733765 18.7205C0.733765 15.7285 1.43776 13.0445 2.84576 10.6685C4.25376 8.26317 6.20443 6.38583 8.69777 5.0365C11.1911 3.65783 13.9778 2.9685 17.0578 2.9685C19.4631 2.9685 21.6631 3.37917 23.6578 4.2005C25.6524 4.9925 27.3538 6.1805 28.7618 7.7645L25.9018 10.5365C23.5844 8.10183 20.6951 6.8845 17.2338 6.8845C14.9458 6.8845 12.8778 7.39783 11.0298 8.4245C9.18177 9.45117 7.72976 10.8738 6.67377 12.6925C5.6471 14.4818 5.13376 16.4912 5.13376 18.7205C5.13376 20.9498 5.6471 22.9738 6.67377 24.7925C7.72976 26.5818 9.18177 27.9898 11.0298 29.0165C12.8778 30.0432 14.9458 30.5565 17.2338 30.5565C20.6658 30.5565 23.5551 29.3245 25.9018 26.8605L28.7618 29.6325C27.3538 31.2165 25.6378 32.4192 23.6138 33.2405C21.6191 34.0618 19.4191 34.4725 17.0138 34.4725Z" fill="#d2d1cc"/>
    <path d="M44.3024 34.3845C41.985 34.3845 39.9024 33.8712 38.0544 32.8445C36.2064 31.8178 34.7544 30.4098 33.6984 28.6205C32.6717 26.8018 32.1584 24.7485 32.1584 22.4605C32.1584 20.1725 32.6717 18.1338 33.6984 16.3445C34.7544 14.5258 36.2064 13.1178 38.0544 12.1205C39.9024 11.0938 41.985 10.5805 44.3024 10.5805C46.6197 10.5805 48.6877 11.0938 50.5064 12.1205C52.3544 13.1178 53.7917 14.5258 54.8184 16.3445C55.8744 18.1338 56.4024 20.1725 56.4024 22.4605C56.4024 24.7485 55.8744 26.8018 54.8184 28.6205C53.7917 30.4098 52.3544 31.8178 50.5064 32.8445C48.6877 33.8712 46.6197 34.3845 44.3024 34.3845ZM44.3024 30.6885C45.7984 30.6885 47.133 30.3512 48.3064 29.6765C49.509 28.9725 50.4477 28.0045 51.1224 26.7725C51.797 25.5112 52.1344 24.0738 52.1344 22.4605C52.1344 20.8472 51.797 19.4245 51.1224 18.1925C50.4477 16.9312 49.509 15.9632 48.3064 15.2885C47.133 14.6138 45.7984 14.2765 44.3024 14.2765C42.8064 14.2765 41.457 14.6138 40.2544 15.2885C39.081 15.9632 38.1424 16.9312 37.4384 18.1925C36.7637 19.4245 36.4264 20.8472 36.4264 22.4605C36.4264 24.0738 36.7637 25.5112 37.4384 26.7725C38.1424 28.0045 39.081 28.9725 40.2544 29.6765C41.457 30.3512 42.8064 30.6885 44.3024 30.6885Z" fill="#d2d1cc"/>
    <path d="M63.124 10.8005H67.348V34.1205H63.124V10.8005ZM65.236 6.3125C64.4147 6.3125 63.7254 6.0485 63.168 5.5205C62.64 4.9925 62.376 4.34717 62.376 3.5845C62.376 2.82183 62.64 2.1765 63.168 1.6485C63.7254 1.09117 64.4147 0.8125 65.236 0.8125C66.0574 0.8125 66.732 1.0765 67.26 1.6045C67.8174 2.10317 68.096 2.73383 68.096 3.4965C68.096 4.2885 67.8174 4.96317 67.26 5.5205C66.732 6.0485 66.0574 6.3125 65.236 6.3125Z" fill="#d2d1cc"/>
    <path d="M88.7451 10.5805C91.7078 10.5805 94.0544 11.4458 95.7851 13.1765C97.5451 14.8778 98.4251 17.3858 98.4251 20.7005V34.1205H94.2011V21.1845C94.2011 18.9258 93.6584 17.2245 92.5731 16.0805C91.4878 14.9365 89.9331 14.3645 87.9091 14.3645C85.6211 14.3645 83.8171 15.0392 82.4971 16.3885C81.1771 17.7085 80.5171 19.6152 80.5171 22.1085V34.1205H76.2931V10.8005H80.3411V14.3205C81.1918 13.1178 82.3358 12.1938 83.7731 11.5485C85.2398 10.9032 86.8971 10.5805 88.7451 10.5805Z" fill="#d2d1cc"/>
    <path d="M107.122 10.8005H111.346V34.1205H107.122V10.8005ZM109.234 6.3125C108.413 6.3125 107.724 6.0485 107.166 5.5205C106.638 4.9925 106.374 4.34717 106.374 3.5845C106.374 2.82183 106.638 2.1765 107.166 1.6485C107.724 1.09117 108.413 0.8125 109.234 0.8125C110.056 0.8125 110.73 1.0765 111.258 1.6045C111.816 2.10317 112.094 2.73383 112.094 3.4965C112.094 4.2885 111.816 4.96317 111.258 5.5205C110.73 6.0485 110.056 6.3125 109.234 6.3125Z" fill="#d2d1cc"/>
    <path d="M126.979 34.3845C125.073 34.3845 123.239 34.1352 121.479 33.6365C119.719 33.1085 118.341 32.4485 117.343 31.6565L119.103 28.3125C120.13 29.0458 121.377 29.6325 122.843 30.0725C124.31 30.5125 125.791 30.7325 127.287 30.7325C130.983 30.7325 132.831 29.6765 132.831 27.5645C132.831 26.8605 132.582 26.3032 132.083 25.8925C131.585 25.4818 130.954 25.1885 130.191 25.0125C129.458 24.8072 128.402 24.5872 127.023 24.3525C125.146 24.0592 123.606 23.7218 122.403 23.3405C121.23 22.9592 120.218 22.3138 119.367 21.4045C118.517 20.4952 118.091 19.2192 118.091 17.5765C118.091 15.4645 118.971 13.7778 120.731 12.5165C122.491 11.2258 124.853 10.5805 127.815 10.5805C129.37 10.5805 130.925 10.7712 132.479 11.1525C134.034 11.5338 135.31 12.0472 136.307 12.6925L134.503 16.0365C132.597 14.8045 130.353 14.1885 127.771 14.1885C125.982 14.1885 124.618 14.4818 123.679 15.0685C122.741 15.6552 122.271 16.4325 122.271 17.4005C122.271 18.1632 122.535 18.7645 123.063 19.2045C123.591 19.6445 124.237 19.9672 124.999 20.1725C125.791 20.3778 126.891 20.6125 128.299 20.8765C130.177 21.1992 131.687 21.5512 132.831 21.9325C134.005 22.2845 135.002 22.9005 135.823 23.7805C136.645 24.6605 137.055 25.8925 137.055 27.4765C137.055 29.5885 136.146 31.2752 134.327 32.5365C132.538 33.7685 130.089 34.3845 126.979 34.3845Z" fill="#d2d1cc"/>
    <path d="M164.29 22.5925C164.29 22.9152 164.261 23.3405 164.202 23.8685H145.282C145.546 25.9218 146.441 27.5792 147.966 28.8405C149.521 30.0725 151.442 30.6885 153.73 30.6885C156.517 30.6885 158.761 29.7498 160.462 27.8725L162.794 30.6005C161.738 31.8325 160.418 32.7712 158.834 33.4165C157.28 34.0618 155.534 34.3845 153.598 34.3845C151.134 34.3845 148.949 33.8858 147.042 32.8885C145.136 31.8618 143.654 30.4392 142.598 28.6205C141.572 26.8018 141.058 24.7485 141.058 22.4605C141.058 20.2018 141.557 18.1632 142.554 16.3445C143.581 14.5258 144.974 13.1178 146.734 12.1205C148.524 11.0938 150.533 10.5805 152.762 10.5805C154.992 10.5805 156.972 11.0938 158.702 12.1205C160.462 13.1178 161.826 14.5258 162.794 16.3445C163.792 18.1632 164.29 20.2458 164.29 22.5925ZM152.762 14.1445C150.738 14.1445 149.037 14.7605 147.658 15.9925C146.309 17.2245 145.517 18.8378 145.282 20.8325H160.242C160.008 18.8672 159.201 17.2685 157.822 16.0365C156.473 14.7752 154.786 14.1445 152.762 14.1445Z" fill="#d2d1cc"/>
</svg>