<svg id="jackpot" width="194" height="46" viewBox="0 0 194 46" fill="none" xmlns="http://www.w3.org/2000/svg">
    <path d="M21.6645 1.94792V23.6405C21.6645 26.964 20.7513 29.524 18.9249 31.3205C17.1284 33.117 14.6283 34.0152 11.4246 34.0152C7.95135 34.0152 5.19673 33.0421 3.16072 31.0959C1.1247 29.1198 0.106689 26.2903 0.106689 22.6075H7.69684C7.69684 25.5717 8.81965 27.0538 11.0653 27.0538C13.0114 27.0538 13.9845 25.916 13.9845 23.6405V1.94792H21.6645Z" fill="#d2d1cc"/>
    <path d="M37.6006 8.32545C39.5169 8.32545 41.1637 8.7596 42.541 9.6279C43.9183 10.4962 44.9363 11.6789 45.595 13.176V8.63983H53.23V33.7008H45.595V29.1647C44.9363 30.6618 43.9183 31.8444 42.541 32.7127C41.1637 33.5811 39.5169 34.0152 37.6006 34.0152C35.5347 34.0152 33.6783 33.5062 32.0315 32.4882C30.4147 31.4402 29.1272 29.9432 28.1691 27.997C27.2409 26.0508 26.7768 23.7752 26.7768 21.1703C26.7768 18.5355 27.2409 16.2599 28.1691 14.3437C29.1272 12.3975 30.4147 10.9154 32.0315 9.89737C33.6783 8.84942 35.5347 8.32545 37.6006 8.32545ZM40.0708 15.0623C38.424 15.0623 37.0916 15.6012 36.0736 16.6791C35.0855 17.757 34.5915 19.2541 34.5915 21.1703C34.5915 23.0866 35.0855 24.5836 36.0736 25.6615C37.0916 26.7394 38.424 27.2784 40.0708 27.2784C41.6876 27.2784 43.0051 26.7245 44.0231 25.6166C45.071 24.5088 45.595 23.0267 45.595 21.1703C45.595 19.284 45.071 17.8019 44.0231 16.724C43.0051 15.6162 41.6876 15.0623 40.0708 15.0623Z" fill="#d2d1cc"/>
    <path d="M71.183 8.32545C74.4167 8.32545 77.1264 9.22369 79.3121 11.0202C81.4978 12.7867 82.8751 15.2269 83.444 18.3409H75.3149C75.0754 17.263 74.5813 16.4246 73.8328 15.8258C73.0843 15.2269 72.1411 14.9275 71.0033 14.9275C69.656 14.9275 68.5481 15.4665 67.6798 16.5444C66.8115 17.5923 66.3774 19.1343 66.3774 21.1703C66.3774 23.2063 66.8115 24.7633 67.6798 25.8412C68.5481 26.8891 69.656 27.4131 71.0033 27.4131C72.1411 27.4131 73.0843 27.1137 73.8328 26.5149C74.5813 25.916 75.0754 25.0777 75.3149 23.9998H83.444C82.8751 27.1137 81.4978 29.5689 79.3121 31.3654C77.1264 33.1319 74.4167 34.0152 71.183 34.0152C68.7278 34.0152 66.5421 33.5062 64.6258 32.4882C62.7395 31.4402 61.2574 29.9432 60.1795 27.997C59.1016 26.0508 58.5627 23.7752 58.5627 21.1703C58.5627 18.5355 59.0866 16.2599 60.1346 14.3437C61.2125 12.3975 62.7096 10.9154 64.6258 9.89737C66.5421 8.84942 68.7278 8.32545 71.183 8.32545Z" fill="#d2d1cc"/>
    <path d="M103.98 33.7008L96.4801 23.0566V33.7008H88.8001V0.46582H96.4801V18.7002L103.98 8.63983H113.008L102.903 21.1703L113.232 33.7008H103.98Z" fill="#d2d1cc"/>
    <path d="M133.014 8.32545C135.08 8.32545 136.921 8.84942 138.538 9.89737C140.185 10.9154 141.472 12.3975 142.4 14.3437C143.358 16.2599 143.838 18.5355 143.838 21.1703C143.838 23.7752 143.358 26.0508 142.4 27.997C141.472 29.9432 140.185 31.4402 138.538 32.4882C136.921 33.5062 135.08 34.0152 133.014 34.0152C131.097 34.0152 129.451 33.5811 128.073 32.7127C126.696 31.8444 125.693 30.6618 125.064 29.1647V45.6474H117.384V8.63983H125.064V13.176C125.693 11.6789 126.696 10.4962 128.073 9.6279C129.451 8.7596 131.097 8.32545 133.014 8.32545ZM130.544 15.0623C128.927 15.0623 127.594 15.6162 126.546 16.724C125.528 17.8019 125.019 19.284 125.019 21.1703C125.019 23.0267 125.528 24.5088 126.546 25.6166C127.594 26.7245 128.927 27.2784 130.544 27.2784C132.19 27.2784 133.508 26.7394 134.496 25.6615C135.514 24.5836 136.023 23.0866 136.023 21.1703C136.023 19.2541 135.514 17.757 134.496 16.6791C133.508 15.6012 132.19 15.0623 130.544 15.0623Z" fill="#d2d1cc"/>
    <path d="M160.892 8.32545C163.377 8.32545 165.593 8.84942 167.539 9.89737C169.515 10.9154 171.057 12.3975 172.165 14.3437C173.303 16.2899 173.872 18.5654 173.872 21.1703C173.872 23.7752 173.303 26.0508 172.165 27.997C171.057 29.9432 169.515 31.4402 167.539 32.4882C165.593 33.5062 163.377 34.0152 160.892 34.0152C158.407 34.0152 156.176 33.5062 154.2 32.4882C152.224 31.4402 150.667 29.9432 149.529 27.997C148.422 26.0508 147.868 23.7752 147.868 21.1703C147.868 18.5654 148.422 16.2899 149.529 14.3437C150.667 12.3975 152.224 10.9154 154.2 9.89737C156.176 8.84942 158.407 8.32545 160.892 8.32545ZM160.892 14.9724C159.425 14.9724 158.183 15.5114 157.165 16.5893C156.176 17.6372 155.682 19.1642 155.682 21.1703C155.682 23.1764 156.176 24.7034 157.165 25.7514C158.183 26.7993 159.425 27.3233 160.892 27.3233C162.359 27.3233 163.587 26.7993 164.575 25.7514C165.563 24.7034 166.057 23.1764 166.057 21.1703C166.057 19.1642 165.563 17.6372 164.575 16.5893C163.587 15.5114 162.359 14.9724 160.892 14.9724Z" fill="#d2d1cc"/>
    <path d="M193.394 27.0987V33.7008H189.936C187.001 33.7008 184.711 32.9822 183.064 31.545C181.447 30.0779 180.639 27.6676 180.639 24.3142V15.1072H177.27V8.63983H180.639V2.48687H188.319V8.63983H193.349V15.1072H188.319V24.4489C188.319 25.437 188.513 26.1256 188.903 26.5149C189.322 26.9041 190.01 27.0987 190.969 27.0987H193.394Z" fill="#d2d1cc"/>
</svg>