<svg id="source-maz" width="187" height="30" viewBox="0 0 187 30" fill="none" xmlns="http://www.w3.org/2000/svg">
    <path d="M15.4517 2.32715C15.5662 3.27246 15.6235 3.81673 15.6235 3.95996L15.5376 5.87207C15.509 6.68848 15.4731 7.21126 15.4302 7.44043C15.3013 7.49772 15.1938 7.52637 15.1079 7.52637L14.9146 7.4834C14.4562 5.47819 13.6756 4.01725 12.5728 3.10059C11.4842 2.18392 10.1522 1.72559 8.57666 1.72559C6.94385 1.72559 5.60465 2.18392 4.55908 3.10059C3.51351 4.01725 2.99072 5.08431 2.99072 6.30176C2.99072 7.23275 3.35596 8.08496 4.08643 8.8584C4.81689 9.63184 6.68604 10.792 9.69385 12.3389C11.9855 13.5277 13.6255 14.5016 14.6138 15.2607C15.6021 16.0055 16.3468 16.8721 16.8481 17.8604C17.3494 18.8486 17.6001 19.9515 17.6001 21.1689C17.6001 22.7015 17.1991 24.141 16.397 25.4873C15.6092 26.8337 14.5422 27.8506 13.1958 28.5381C11.8494 29.2113 10.0662 29.5479 7.84619 29.5479C5.9126 29.5479 4.05778 29.2399 2.28174 28.624C1.23617 28.2516 0.598796 27.9508 0.369629 27.7217C0.140462 27.4925 0.0258789 27.249 0.0258789 26.9912C0.0258789 26.8337 0.0402018 26.6331 0.0688477 26.3896C0.269368 24.6995 0.37679 23.3102 0.391113 22.2217C0.419759 21.5485 0.469889 21.1546 0.541504 21.04C0.598796 20.9398 0.706217 20.8896 0.86377 20.8896C0.992676 20.8896 1.09294 20.9398 1.16455 21.04C1.25049 21.126 1.30778 21.2979 1.33643 21.5557C1.49398 23.3174 2.31038 24.8929 3.78564 26.2822C5.24658 27.6715 6.90088 28.3662 8.74854 28.3662C9.88005 28.3662 10.9185 28.1299 11.8638 27.6572C12.8234 27.1846 13.5682 26.5042 14.0981 25.6162C14.6424 24.7139 14.9146 23.8402 14.9146 22.9951C14.9146 21.835 14.5063 20.7751 13.6899 19.8154C12.8735 18.8558 11.2336 17.7386 8.77002 16.4639C6.30648 15.1748 4.70231 14.2367 3.95752 13.6494C2.75439 12.6898 1.85205 11.6729 1.25049 10.5986C0.806478 9.7679 0.584473 8.80111 0.584473 7.69824C0.584473 5.70736 1.37223 4.02441 2.94775 2.64941C4.52327 1.26009 6.63591 0.56543 9.28564 0.56543C10.7466 0.56543 12.007 0.730143 13.0669 1.05957C13.8403 1.31738 14.6353 1.73991 15.4517 2.32715Z" fill="#d2d1cc"/>
    <path d="M21.0376 20.2021C21.0376 19.2282 21.2381 18.1898 21.6392 17.0869C22.0545 15.9697 22.6776 14.9743 23.5083 14.1006C24.339 13.2126 25.2199 12.5537 26.1509 12.124C27.4543 11.5225 29.0441 11.2217 30.9204 11.2217C33.5988 11.2217 35.8332 12.1383 37.6235 13.9717C39.4282 15.805 40.3306 18.0107 40.3306 20.5889C40.3306 22.8805 39.3853 24.9287 37.4946 26.7334C35.6183 28.5238 33.2407 29.4189 30.3618 29.4189C28.5858 29.4189 26.91 28.9535 25.3345 28.0225C24.16 27.3206 23.1502 26.2822 22.3052 24.9072C21.4601 23.5322 21.0376 21.9639 21.0376 20.2021ZM30.5337 28.5811C31.6222 28.5811 32.6678 28.2874 33.6704 27.7002C34.6873 27.113 35.4966 26.1748 36.0981 24.8857C36.6997 23.5824 37.0005 22.0785 37.0005 20.374C37.0005 19.2568 36.7642 17.9606 36.2915 16.4854C35.8332 15.0101 35.117 13.9072 34.1431 13.1768C33.1834 12.432 32.0519 12.0596 30.7485 12.0596C29.8032 12.0596 28.8364 12.2816 27.8481 12.7256C26.8742 13.1696 26.0435 14.0218 25.356 15.2822C24.6828 16.5426 24.3462 18.333 24.3462 20.6533C24.3462 23.2601 24.9334 25.2367 26.1079 26.583C27.2967 27.915 28.772 28.5811 30.5337 28.5811Z" fill="#d2d1cc"/>
    <path d="M42.6509 11.9736H44.2622L44.9712 12.0166L45.5298 11.9736C47.005 11.9736 47.9217 11.988 48.2798 12.0166L48.3013 12.4248C48.3013 14.4443 48.2726 16.3994 48.2153 18.29C48.1724 19.4072 48.1509 20.0446 48.1509 20.2021C48.1509 22.723 48.2297 24.2985 48.3872 24.9287C48.5591 25.5589 48.9458 26.0674 49.5474 26.4541C50.1632 26.8265 50.9009 27.0127 51.7603 27.0127C52.8058 27.0127 53.8013 26.7979 54.7466 26.3682C55.7062 25.9242 56.5226 25.387 57.1958 24.7568C57.2674 24.2126 57.3032 23.611 57.3032 22.9521C57.3032 20.818 57.3247 19.3786 57.3677 18.6338C57.382 18.1898 57.3892 17.8031 57.3892 17.4736C57.3892 15.1533 57.2746 13.8428 57.0454 13.542C56.8162 13.2412 55.9425 13.012 54.4243 12.8545C53.923 12.7972 53.5578 12.7471 53.3286 12.7041C53.214 12.5179 53.1567 12.3747 53.1567 12.2744L53.2212 12.0381C53.5936 11.9951 53.9588 11.9736 54.3169 11.9736L57.7329 12.0166C58.9504 11.988 59.5949 11.9736 59.6665 11.9736C59.8241 11.9736 59.9744 11.9808 60.1177 11.9951L60.1606 13.5635C60.0604 15.7406 60.0031 18.4333 59.9888 21.6416L59.9458 23.3818L60.0317 26.3037C60.1606 26.5329 60.2752 26.6689 60.3755 26.7119C60.5474 26.7835 60.8983 26.8193 61.4282 26.8193H61.6216C61.8078 26.8193 62.3377 26.8623 63.2114 26.9482C63.2257 27.1344 63.2329 27.2705 63.2329 27.3564V27.5928C61.3136 28.0081 59.7596 28.4235 58.5708 28.8389C58.0981 28.9964 57.6971 29.111 57.3677 29.1826C57.2961 28.6813 57.2603 28.3734 57.2603 28.2588V26.5186C57.2603 26.4469 57.2531 26.2536 57.2388 25.9385C57.0526 26.0674 56.8377 26.2249 56.5942 26.4111C55.4627 27.2848 54.2668 28.0225 53.0063 28.624C52.1613 29.0394 51.3449 29.2471 50.5571 29.2471C49.0532 29.2471 47.8286 28.6885 46.8833 27.5713C45.9237 26.4541 45.4438 24.5492 45.4438 21.8564C45.4438 21.7132 45.451 21.4554 45.4653 21.083C45.5226 20.3955 45.5513 19.9157 45.5513 19.6436C45.5513 19.5433 45.5441 19.2282 45.5298 18.6982C45.5155 18.4691 45.5083 18.2686 45.5083 18.0967C45.5083 17.9678 45.5155 17.6813 45.5298 17.2373C45.5441 16.779 45.5513 16.4567 45.5513 16.2705C45.5513 16.027 45.5441 15.8122 45.5298 15.626L45.4868 14.4873L45.5083 13.8857C45.5083 13.6566 45.3937 13.4489 45.1646 13.2627C44.2622 13.0192 43.6678 12.8831 43.3813 12.8545C43.1092 12.8115 42.8657 12.7471 42.6509 12.6611V11.9736Z" fill="#d2d1cc"/>
    <path d="M64.3931 28.9033L64.3071 28.624C64.3071 28.5238 64.3716 28.3734 64.5005 28.1729L65.7681 27.915L67.5513 27.5928C67.6945 27.5212 67.7948 27.4209 67.8521 27.292C67.938 27.1058 67.981 26.5544 67.981 25.6377C67.981 20.7679 67.9523 17.9606 67.895 17.2158C67.8377 16.4567 67.7088 15.9769 67.5083 15.7764C67.3078 15.5758 66.7922 15.4183 65.9614 15.3037C65.4744 15.2321 65.0877 15.139 64.8013 15.0244L64.8872 14.3799C66.3911 13.764 67.4009 13.234 67.9165 12.79C68.6327 12.1455 69.2414 11.3005 69.7427 10.2549L70.4731 10.2764C70.5591 10.9925 70.6021 12.5824 70.6021 15.0459L70.5806 15.4111C70.5806 15.4971 70.5949 15.6331 70.6235 15.8193C71.1678 14.8311 71.8481 13.9215 72.6646 13.0908L73.1587 12.5967C73.3592 12.3675 73.5526 12.1885 73.7388 12.0596C74.7414 11.458 75.4862 11.1572 75.9731 11.1572C76.6034 11.1572 77.119 11.3721 77.52 11.8018C77.9211 12.2171 78.1216 12.7327 78.1216 13.3486C78.1216 13.8356 77.9784 14.2152 77.6919 14.4873C77.3052 14.8454 76.8612 15.0244 76.3599 15.0244C76.1307 15.0244 75.6795 14.9027 75.0063 14.6592C74.3332 14.4157 73.8892 14.2939 73.6743 14.2939C73.2733 14.2939 72.994 14.3584 72.8364 14.4873C72.4354 14.8024 71.9484 15.4469 71.3755 16.4209C70.9315 17.1514 70.7095 17.8245 70.7095 18.4404L70.8169 21.9854L70.8599 26.2393C70.9028 26.7262 70.9601 27.0413 71.0317 27.1846C71.089 27.2848 71.2323 27.4066 71.4614 27.5498C73.0083 27.6787 73.925 27.7718 74.2114 27.8291C74.4119 27.8434 74.5623 27.8577 74.6626 27.8721C75.2785 27.8864 75.7082 27.9723 75.9517 28.1299C76.0806 28.2015 76.145 28.3089 76.145 28.4521C76.145 28.5381 76.0877 28.6527 75.9731 28.7959L73.5884 28.7744L72.686 28.7529L71.3755 28.7744H69.1841L68.0024 28.8389L64.3931 28.9033Z" fill="#d2d1cc"/>
    <path d="M95.3735 24.9072L95.395 26.3037C94.2778 27.4925 93.175 28.3232 92.0864 28.7959C90.9979 29.2686 89.716 29.5049 88.2407 29.5049C86.6366 29.5049 85.1899 29.0895 83.9009 28.2588C82.6118 27.4137 81.6164 26.2249 80.9146 24.6924C80.2271 23.1598 79.8833 21.6559 79.8833 20.1807C79.8833 18.5622 80.2987 17.0368 81.1294 15.6045C81.9744 14.1579 83.0845 13.0837 84.4595 12.3818C85.8488 11.6657 87.589 11.3076 89.6802 11.3076C91.6854 11.3076 93.2108 11.6514 94.2563 12.3389C94.8436 12.7399 95.1372 13.2555 95.1372 13.8857C95.1372 14.3441 94.9868 14.7236 94.686 15.0244C94.3853 15.3252 93.9985 15.4756 93.5259 15.4756C92.8097 15.4756 92.022 15.0316 91.1626 14.1436C90.6327 13.5993 90.1528 13.2269 89.7231 13.0264C89.2935 12.8115 88.8136 12.7041 88.2837 12.7041C87.0089 12.7041 85.9491 13.2269 85.104 14.2725C83.9295 15.762 83.3423 17.6312 83.3423 19.8799C83.3423 22.2002 83.9438 24.0479 85.147 25.4229C86.3501 26.7979 87.7537 27.4854 89.3579 27.4854C90.4751 27.4854 91.4634 27.3063 92.3228 26.9482C93.1964 26.5758 94.2134 25.8955 95.3735 24.9072Z" fill="#d2d1cc"/>
    <path d="M113.571 17.4951L104.956 17.5596H103.323C102.664 17.5596 101.991 17.5882 101.303 17.6455C101.174 18.0752 101.11 18.3688 101.11 18.5264L101.131 18.7412V18.9561L101.11 20.0088C101.11 20.8825 101.382 21.9567 101.926 23.2314C102.485 24.4919 103.273 25.4587 104.29 26.1318C105.321 26.7907 106.603 27.1416 108.135 27.1846C108.952 27.1416 109.603 27.0413 110.09 26.8838C110.577 26.7262 111.265 26.361 112.153 25.7881L113.7 24.5205L113.829 25.3799C113.829 25.4801 113.821 25.5876 113.807 25.7021C113.163 26.5186 112.346 27.2347 111.358 27.8506C110.37 28.4665 109.367 28.9176 108.35 29.2041C107.863 29.333 107.061 29.3975 105.944 29.3975C104.927 29.3975 103.924 29.1898 102.936 28.7744C101.475 28.1442 100.322 27.1344 99.4771 25.7451C98.6463 24.3415 98.231 22.6442 98.231 20.6533C98.231 20.0231 98.3455 19.2139 98.5747 18.2256C98.8182 17.2373 99.2479 16.1846 99.8638 15.0674C100.279 14.3083 100.788 13.6852 101.389 13.1982C102.249 12.5107 103 12.0309 103.645 11.7588C104.576 11.3721 105.657 11.1787 106.889 11.1787C108.221 11.1787 109.31 11.4222 110.155 11.9092C111.301 12.5537 112.153 13.3844 112.711 14.4014C113.284 15.4183 113.571 16.3493 113.571 17.1943V17.4951ZM101.583 16.7217H102.592C103.323 16.7217 105.5 16.6071 109.124 16.3779C109.696 16.3493 110.047 16.292 110.176 16.2061C110.434 15.9339 110.563 15.6904 110.563 15.4756C110.563 15.0316 110.42 14.5303 110.133 13.9717C109.847 13.3988 109.403 12.9619 108.801 12.6611C108.214 12.346 107.527 12.1885 106.739 12.1885C105.077 12.1885 103.745 12.8115 102.743 14.0576C101.969 15.0029 101.583 15.891 101.583 16.7217Z" fill="#d2d1cc"/>
    <path d="M115.204 28.3447C115.648 28.0439 116.45 27.8291 117.61 27.7002C118.512 27.6572 119.049 27.5785 119.221 27.4639C119.336 27.3779 119.422 27.2705 119.479 27.1416C119.694 26.6117 119.851 25.1722 119.952 22.8232C120.081 19.7725 120.288 15.7119 120.575 10.6416C120.804 6.77441 120.918 4.361 120.918 3.40137V2.84277C119.887 2.62793 118.254 2.39876 116.02 2.15527C115.877 1.94043 115.805 1.77572 115.805 1.66113C115.805 1.58952 115.855 1.46061 115.956 1.27441C116.199 1.18848 116.385 1.14551 116.514 1.14551C116.629 1.14551 116.879 1.17415 117.266 1.23145C117.968 1.33171 118.935 1.38184 120.167 1.38184C120.568 1.38184 121.255 1.35319 122.229 1.2959C122.917 1.25293 123.303 1.23145 123.389 1.23145C123.618 1.23145 123.883 1.26725 124.184 1.33887C124.327 1.4821 124.435 1.61816 124.506 1.74707L125.409 3.7666L131.489 17.2158L134.002 22.8662C135.993 18.9274 137.54 15.4255 138.643 12.3604C138.715 12.1312 138.801 11.9235 138.901 11.7373C139.03 11.4938 139.152 11.2217 139.266 10.9209C139.381 10.6201 139.846 9.47428 140.663 7.4834C140.992 6.68131 141.257 5.99381 141.458 5.4209C142.274 3.12923 142.754 1.81868 142.897 1.48926C143.169 1.389 143.405 1.33887 143.606 1.33887C143.835 1.33887 144.129 1.35319 144.487 1.38184C145.289 1.4248 146.592 1.44629 148.397 1.44629C149.514 1.44629 150.431 1.43197 151.147 1.40332C151.176 1.56087 151.19 1.67546 151.19 1.74707C151.19 1.84733 151.168 1.9834 151.125 2.15527C150.667 2.39876 150.116 2.53483 149.471 2.56348C148.196 2.63509 147.387 2.73535 147.043 2.86426C146.7 2.99316 146.478 3.15788 146.377 3.3584C146.292 3.55892 146.213 4.21777 146.141 5.33496L146.163 6.32324L146.141 7.35449C146.141 9.50293 146.198 13.1123 146.313 18.1826L146.292 22.3936L146.313 25.1006C146.313 26.1605 146.363 26.7907 146.463 26.9912C146.564 27.1774 146.85 27.3564 147.323 27.5283C148.096 27.7861 149.357 28.0511 151.104 28.3232C151.204 28.3949 151.254 28.488 151.254 28.6025C151.254 28.7314 151.247 28.8747 151.233 29.0322H150.245C149.4 29.0322 148.483 29.0036 147.495 28.9463C146.506 28.9033 145.976 28.8818 145.905 28.8818C142.969 28.8818 141.021 28.9105 140.061 28.9678C139.474 29.0107 139.101 29.0322 138.944 29.0322C138.844 29.0322 138.736 29.0036 138.622 28.9463V28.667C138.622 28.5381 138.643 28.402 138.686 28.2588C139.159 28.0583 139.803 27.9222 140.62 27.8506C141.522 27.6071 142.181 27.3493 142.596 27.0771C142.725 26.5329 142.79 25.4229 142.79 23.7471L142.725 19.4072C142.725 18.9346 142.747 18.0537 142.79 16.7646C142.847 15.4756 142.875 13.3773 142.875 10.4697C142.875 8.16374 142.818 6.41634 142.704 5.22754C142.46 5.72884 141.98 6.81738 141.264 8.49316L140.942 9.30957L140.899 9.43848L137.719 16.958L136.581 19.8584L135.098 23.3818C134.454 25.0003 133.902 26.4326 133.444 27.6787C133.243 28.2516 133.079 28.7028 132.95 29.0322L132.456 29.0107C130.837 24.2842 128.903 19.4359 126.655 14.4658C124.42 9.49577 122.852 6.21582 121.95 4.62598C121.835 5.24186 121.706 7.03223 121.563 9.99707C121.377 13.6064 121.284 17.5811 121.284 21.9209C121.284 23.2816 121.384 24.8141 121.584 26.5186C121.642 27.0055 121.849 27.3708 122.208 27.6143C122.566 27.8434 123.489 27.9723 124.979 28.001C125.552 28.001 126.096 28.0439 126.612 28.1299C126.712 28.3447 126.762 28.5023 126.762 28.6025C126.762 28.6742 126.726 28.7959 126.655 28.9678L119.973 28.7314C119.486 28.7314 118.727 28.7673 117.696 28.8389C117.123 28.8818 116.299 28.9105 115.225 28.9248L115.204 28.3447Z" fill="#d2d1cc"/>
    <path d="M169.065 25.917C169.151 26.1032 169.194 26.2393 169.194 26.3252C169.194 26.54 169.022 26.9196 168.678 27.4639C168.234 28.18 167.74 28.7028 167.196 29.0322C166.852 29.2471 166.379 29.3545 165.778 29.3545C164.747 29.3545 163.973 29.0394 163.458 28.4092C163.142 28.0368 162.92 27.3708 162.792 26.4111L160.385 28.0869C159.54 28.5739 158.896 28.8818 158.452 29.0107C157.736 29.1969 156.876 29.29 155.874 29.29C155.143 29.29 154.563 29.0752 154.133 28.6455C153.718 28.2015 153.51 27.6357 153.51 26.9482C153.51 25.96 154.112 24.7783 155.315 23.4033C156.532 22.0283 158.18 20.904 160.256 20.0303C161.717 19.4144 162.612 19.0205 162.942 18.8486C162.971 18.376 162.985 17.8604 162.985 17.3018C162.985 15.4827 162.727 14.251 162.211 13.6064C161.71 12.9619 160.987 12.6396 160.042 12.6396C159.053 12.6396 158.129 13.0264 157.27 13.7998C156.74 14.2868 156.339 15.2035 156.067 16.5498C155.981 16.9222 155.816 17.3232 155.573 17.7529C154.957 18.154 154.463 18.3545 154.09 18.3545C153.775 18.3545 153.489 18.2614 153.231 18.0752C153.088 17.9749 153.016 17.8604 153.016 17.7314C153.016 17.359 153.41 16.5212 154.198 15.2178C155 13.9001 156.002 12.9189 157.206 12.2744C158.423 11.6156 159.483 11.2861 160.385 11.2861C161.617 11.2861 162.534 11.4007 163.135 11.6299C163.737 11.8447 164.267 12.2314 164.725 12.79C165.183 13.3486 165.463 13.9574 165.563 14.6162C165.62 14.9313 165.649 16.0557 165.649 17.9893L165.584 21.4053L165.606 23.8975C165.606 24.2269 165.599 24.5062 165.584 24.7354C165.57 25.1507 165.563 25.4587 165.563 25.6592C165.563 26.1318 165.699 26.5114 165.971 26.7979C166.243 27.0843 166.566 27.2275 166.938 27.2275C167.482 27.2275 167.948 26.9554 168.334 26.4111L168.592 26.0674C168.664 26.0244 168.821 25.9743 169.065 25.917ZM162.749 25.2939C162.849 23.4749 162.899 22.193 162.899 21.4482C162.899 21.0615 162.877 20.5387 162.834 19.8799C161.875 20.2236 160.858 20.7464 159.784 21.4482C158.709 22.1501 157.857 22.9593 157.227 23.876C156.769 24.5348 156.54 25.1579 156.54 25.7451C156.54 26.3037 156.726 26.7692 157.098 27.1416C157.485 27.514 157.965 27.7002 158.538 27.7002C158.982 27.7002 159.519 27.5426 160.149 27.2275C160.98 26.8122 161.846 26.1676 162.749 25.2939Z" fill="#d2d1cc"/>
    <path d="M170.633 28.9033L170.655 28.4521C172.359 26.5329 173.555 25.1292 174.243 24.2412L175.961 22.0498C176.148 21.8493 176.957 20.9255 178.389 19.2783L180.323 17.0225C180.738 16.5785 181.619 15.4398 182.965 13.6064C182.836 13.5205 182.686 13.4775 182.514 13.4775L181.633 13.4561C180.588 13.4274 179.227 13.4417 177.551 13.499C176.362 13.542 175.446 13.6852 174.801 13.9287C174.329 14.1006 173.906 14.3727 173.534 14.7451C172.946 15.3324 172.524 15.8838 172.266 16.3994C172.137 16.6572 171.93 16.8721 171.643 17.0439C171.486 17.0296 171.371 16.958 171.299 16.8291C171.357 16.6715 171.486 16.292 171.686 15.6904C171.901 15.0745 172.08 14.516 172.223 14.0146C172.696 12.4248 173.125 11.1644 173.512 10.2334H174.286C174.257 10.4196 174.236 10.5557 174.221 10.6416C174.15 11.057 174.114 11.3721 174.114 11.5869C174.114 11.8877 174.243 12.1025 174.5 12.2314C174.859 12.432 176.033 12.5322 178.024 12.5322C178.497 12.5322 179.055 12.5179 179.7 12.4893C182.306 12.3604 183.954 12.2959 184.641 12.2959C184.913 12.2959 185.536 12.3245 186.51 12.3818C186.525 12.5394 186.532 12.6755 186.532 12.79C186.532 13.0335 186.489 13.2197 186.403 13.3486C186.059 13.9502 185.458 14.8096 184.598 15.9268L180.215 21.2764L174.737 27.9365C175.023 27.9365 175.496 27.9508 176.155 27.9795H181.333C181.934 27.9938 182.528 27.8577 183.116 27.5713C183.717 27.2848 184.254 26.805 184.727 26.1318C185.214 25.4443 185.586 24.6423 185.844 23.7256C185.959 23.654 186.073 23.6182 186.188 23.6182C186.36 23.6182 186.496 23.6898 186.596 23.833L186.145 26.8838C186.016 28.0296 185.859 28.7243 185.672 28.9678L172.653 28.9463H171.321C171.063 28.9463 170.834 28.932 170.633 28.9033Z" fill="#d2d1cc"/>
</svg>