<svg id="top-up" width="139" height="32" viewBox="0 0 139 32" fill="none" xmlns="http://www.w3.org/2000/svg">
    <path d="M0.944946 5.40243H8.97923V31.2082H14.1753V5.40243H22.2533V0.642992H0.944946V5.40243Z" fill="#d2d1cc"/>
    <path d="M28.8084 15.9256C28.8084 14.3537 29.0559 12.9127 29.5507 11.6028C30.0747 10.2638 30.8024 9.11392 31.7339 8.15331C32.6655 7.16357 33.7571 6.40672 35.0088 5.88274C36.2896 5.32966 37.7014 5.05312 39.2443 5.05312C40.758 5.05312 42.1407 5.32966 43.3924 5.88274C44.6732 6.40672 45.7794 7.16357 46.7109 8.15331C47.6424 9.11392 48.3556 10.2638 48.8505 11.6028C49.3453 12.9127 49.5928 14.3537 49.5928 15.9256C49.5928 17.4975 49.3308 18.953 48.8068 20.2921C48.3119 21.602 47.5988 22.7518 46.6672 23.7416C45.7357 24.7022 44.6296 25.459 43.3487 26.0121C42.097 26.5361 40.7143 26.7981 39.2006 26.7981C37.6869 26.7981 36.2896 26.5361 35.0088 26.0121C33.7571 25.459 32.6655 24.7022 31.7339 23.7416C30.8024 22.7518 30.0747 21.602 29.5507 20.2921C29.0559 18.953 28.8084 17.4975 28.8084 15.9256ZM23.3503 15.9256C23.3503 18.1962 23.7433 20.3066 24.5293 22.257C25.3153 24.1782 26.4214 25.8666 27.8478 27.3221C29.2742 28.7484 30.948 29.8692 32.8692 30.6842C34.7905 31.4702 36.9009 31.8632 39.2006 31.8632C41.5003 31.8632 43.6107 31.4702 45.532 30.6842C47.4823 29.8692 49.1707 28.7484 50.5971 27.3221C52.0234 25.8666 53.1296 24.1782 53.9156 22.257C54.7015 20.3066 55.0945 18.1962 55.0945 15.9256C55.0945 13.655 54.7015 11.5591 53.9156 9.6379C53.1296 7.68755 52.0089 6.01374 50.5534 4.61647C49.127 3.19009 47.4386 2.08392 45.4883 1.29796C43.5671 0.511999 41.4712 0.119019 39.2006 0.119019C36.93 0.119019 34.8341 0.511999 32.9129 1.29796C30.9916 2.08392 29.3033 3.19009 27.8478 4.61647C26.4214 6.01374 25.3153 7.68755 24.5293 9.6379C23.7433 11.5591 23.3503 13.655 23.3503 15.9256Z" fill="#d2d1cc"/>
    <path d="M61.4153 0.642992V31.2082H66.5677V0.642992H61.4153ZM64.4718 5.18411H70.6285C71.822 5.18411 72.8554 5.37332 73.7287 5.75175C74.602 6.13018 75.2861 6.68326 75.7809 7.41101C76.2758 8.13875 76.5232 9.05571 76.5232 10.1619C76.5232 11.2389 76.2758 12.1559 75.7809 12.9127C75.2861 13.6405 74.602 14.1936 73.7287 14.572C72.8554 14.9213 71.822 15.096 70.6285 15.096H64.4718V19.6371H70.6285C72.87 19.6371 74.8058 19.2587 76.4359 18.5018C78.0661 17.7159 79.3323 16.6242 80.2347 15.227C81.1371 13.8006 81.5883 12.1122 81.5883 10.1619C81.5883 8.21152 81.1371 6.52316 80.2347 5.09678C79.3323 3.6704 78.0661 2.57879 76.4359 1.82194C74.8058 1.03597 72.87 0.642992 70.6285 0.642992H64.4718V5.18411Z" fill="#d2d1cc"/>
    <path d="M87.7505 0.642992V21.1654C87.7505 22.8537 88.0125 24.3674 88.5365 25.7065C89.0896 27.0455 89.861 28.1808 90.8507 29.1123C91.8404 30.0438 93.0194 30.757 94.3875 31.2519C95.7557 31.7467 97.2548 31.9942 98.885 31.9942C100.515 31.9942 102.014 31.7467 103.382 31.2519C104.751 30.757 105.93 30.0438 106.919 29.1123C107.909 28.1808 108.666 27.0455 109.19 25.7065C109.743 24.3674 110.019 22.8537 110.019 21.1654V0.642992H104.867V20.947C104.867 22.1987 104.634 23.3049 104.168 24.2655C103.732 25.1971 103.062 25.9248 102.16 26.4488C101.287 26.9727 100.195 27.2347 98.885 27.2347C97.575 27.2347 96.4689 26.9727 95.5665 26.4488C94.6932 25.9248 94.0237 25.1971 93.5579 24.2655C93.1213 23.3049 92.9029 22.1987 92.9029 20.947V0.642992H87.7505Z" fill="#d2d1cc"/>
    <path d="M117.934 0.642992V31.2082H123.086V0.642992H117.934ZM120.99 5.18411H127.147C128.34 5.18411 129.374 5.37332 130.247 5.75175C131.12 6.13018 131.804 6.68326 132.299 7.41101C132.794 8.13875 133.042 9.05571 133.042 10.1619C133.042 11.2389 132.794 12.1559 132.299 12.9127C131.804 13.6405 131.12 14.1936 130.247 14.572C129.374 14.9213 128.34 15.096 127.147 15.096H120.99V19.6371H127.147C129.388 19.6371 131.324 19.2587 132.954 18.5018C134.584 17.7159 135.851 16.6242 136.753 15.227C137.656 13.8006 138.107 12.1122 138.107 10.1619C138.107 8.21152 137.656 6.52316 136.753 5.09678C135.851 3.6704 134.584 2.57879 132.954 1.82194C131.324 1.03597 129.388 0.642992 127.147 0.642992H120.99V5.18411Z" fill="#d2d1cc"/>
</svg>