<svg id="minicoin" width="195" height="36" viewBox="0 0 195 36" fill="none" xmlns="http://www.w3.org/2000/svg">
    <path d="M14.7782 34.8464L8.22116 11.7544H8.02379C8.33081 15.6871 8.48432 18.7426 8.48432 20.921V34.8464H0.808899V2.78508H12.344L19.0325 25.5482H19.208L25.765 2.78508H37.322V34.8464H29.3615V20.7894C29.3615 20.0584 29.3688 19.247 29.3834 18.3552C29.4126 17.4634 29.515 15.2777 29.6904 11.7982H29.493L23.0237 34.8464H14.7782Z" fill="#d2d1cc"/>
    <path d="M52.3438 34.8464H43.7693V9.99997H52.3438V34.8464ZM43.55 3.81578C43.55 2.52923 43.9082 1.57163 44.6246 0.94298C45.3409 0.314327 46.4959 0 48.0895 0C49.683 0 50.8453 0.321636 51.5763 0.96491C52.3073 1.60818 52.6728 2.55847 52.6728 3.81578C52.6728 6.33039 51.145 7.5877 48.0895 7.5877C45.0632 7.5877 43.55 6.33039 43.55 3.81578Z" fill="#d2d1cc"/>
    <path d="M74.0105 34.8464V21.2938C74.0105 19.6418 73.7692 18.3991 73.2868 17.5657C72.8189 16.7178 72.0587 16.2938 71.0061 16.2938C69.5587 16.2938 68.5134 16.8713 67.8701 18.0263C67.2268 19.1812 66.9052 21.1622 66.9052 23.9692V34.8464H58.3307V9.99997H64.7999L65.8745 13.0701H66.3789C67.1099 11.9006 68.1187 11.0234 69.4052 10.4386C70.7064 9.85377 72.1976 9.56138 73.8789 9.56138C76.6274 9.56138 78.7619 10.3582 80.2824 11.9517C81.8174 13.5453 82.585 15.7894 82.585 18.6842V34.8464H74.0105Z" fill="#d2d1cc"/>
    <path d="M97.0367 34.8464H88.4622V9.99997H97.0367V34.8464ZM88.2429 3.81578C88.2429 2.52923 88.6011 1.57163 89.3174 0.94298C90.0338 0.314327 91.1888 0 92.7823 0C94.3759 0 95.5382 0.321636 96.2692 0.96491C97.0002 1.60818 97.3657 2.55847 97.3657 3.81578C97.3657 6.33039 95.8379 7.5877 92.7823 7.5877C89.756 7.5877 88.2429 6.33039 88.2429 3.81578Z" fill="#d2d1cc"/>
    <path d="M114.339 35.285C110.275 35.285 107.19 34.1885 105.085 31.9955C102.994 29.8025 101.949 26.652 101.949 22.5438C101.949 18.421 103.082 15.2266 105.348 12.9605C107.614 10.6944 110.838 9.56138 115.019 9.56138C117.899 9.56138 120.611 10.19 123.155 11.4473L120.633 17.785C119.595 17.3318 118.638 16.9736 117.76 16.7105C116.883 16.4327 115.969 16.2938 115.019 16.2938C113.63 16.2938 112.556 16.8347 111.795 17.9166C111.035 18.9985 110.655 20.5263 110.655 22.4999C110.655 26.4765 112.124 28.4648 115.063 28.4648C117.578 28.4648 119.99 27.7338 122.3 26.2719V33.092C120.092 34.554 117.439 35.285 114.339 35.285Z" fill="#d2d1cc"/>
    <path d="M150.962 22.3684C150.962 26.4327 149.866 29.6052 147.673 31.8859C145.494 34.152 142.439 35.285 138.506 35.285C134.734 35.285 131.73 34.1227 129.493 31.7982C127.271 29.4736 126.159 26.3303 126.159 22.3684C126.159 18.3187 127.249 15.1754 129.427 12.9386C131.62 10.6871 134.69 9.56138 138.637 9.56138C141.079 9.56138 143.235 10.0804 145.107 11.1184C146.978 12.1564 148.418 13.6476 149.427 15.5921C150.45 17.5219 150.962 19.7806 150.962 22.3684ZM134.866 22.3684C134.866 24.5029 135.151 26.133 135.721 27.2587C136.291 28.3698 137.249 28.9254 138.594 28.9254C139.924 28.9254 140.86 28.3698 141.401 27.2587C141.956 26.133 142.234 24.5029 142.234 22.3684C142.234 20.2485 141.956 18.6476 141.401 17.5657C140.845 16.4839 139.895 15.9429 138.55 15.9429C137.234 15.9429 136.291 16.4839 135.721 17.5657C135.151 18.633 134.866 20.2339 134.866 22.3684Z" fill="#d2d1cc"/>
    <path d="M164.493 34.8464H155.918V9.99997H164.493V34.8464ZM155.699 3.81578C155.699 2.52923 156.057 1.57163 156.773 0.94298C157.49 0.314327 158.645 0 160.238 0C161.832 0 162.994 0.321636 163.725 0.96491C164.456 1.60818 164.822 2.55847 164.822 3.81578C164.822 6.33039 163.294 7.5877 160.238 7.5877C157.212 7.5877 155.699 6.33039 155.699 3.81578Z" fill="#d2d1cc"/>
    <path d="M186.159 34.8464V21.2938C186.159 19.6418 185.918 18.3991 185.436 17.5657C184.968 16.7178 184.208 16.2938 183.155 16.2938C181.708 16.2938 180.662 16.8713 180.019 18.0263C179.376 19.1812 179.054 21.1622 179.054 23.9692V34.8464H170.479V9.99997H176.949L178.023 13.0701H178.528C179.259 11.9006 180.267 11.0234 181.554 10.4386C182.855 9.85377 184.346 9.56138 186.028 9.56138C188.776 9.56138 190.911 10.3582 192.431 11.9517C193.966 13.5453 194.734 15.7894 194.734 18.6842V34.8464H186.159Z" fill="#d2d1cc"/>
</svg>