<svg id="next-planet" width="219" height="33" viewBox="0 0 219 33" fill="none" xmlns="http://www.w3.org/2000/svg">
    <path d="M25.1893 22.4117L25.4587 31.5737H17.5542L7.26931 13.6538H6.82018L6.77527 21.3787L7.04474 31.5737H0.442657L0.801955 23.0404L0.442657 2.6054H8.30228L18.6321 20.5254H19.0812L18.9016 2.87487L25.5935 2.47067L25.1893 22.4117Z" fill="#d2d1cc"/>
    <path d="M48.5274 22.232L36.7604 22.3218C36.97 23.8788 37.509 25.0315 38.3773 25.7801C39.2456 26.5286 40.4732 26.9029 42.0601 26.9029C43.647 26.9029 45.7429 26.4388 48.3478 25.5106L48.8867 25.8699L47.8088 30.945C45.4135 31.6935 43.2428 32.0678 41.2966 32.0678C37.8533 32.0678 35.1436 31.0947 33.1675 29.1485C31.2213 27.2023 30.2482 24.5225 30.2482 21.1092C30.2482 17.6959 31.1913 15.0161 33.0777 13.0699C34.964 11.0938 37.524 10.1057 40.7576 10.1057C43.5422 10.1057 45.698 10.8543 47.225 12.3513C48.7819 13.8484 49.5604 15.9293 49.5604 18.5941C49.5604 19.4624 49.4706 20.3756 49.2909 21.3338L48.5274 22.232ZM43.4074 17.8306C43.4074 15.7647 42.5092 14.7317 40.7127 14.7317C39.6947 14.7317 38.8563 15.076 38.1976 15.7647C37.5389 16.4234 37.0898 17.3815 36.8503 18.639L43.3176 18.4594L43.4074 17.8306Z" fill="#d2d1cc"/>
    <path d="M60.8586 13.1598L63.1042 17.0671L65.4397 12.8903L66.6074 10.5998H72.7604L66.9218 20.9296L72.94 31.3492L65.4397 31.8881L64.3618 29.0138L62.1162 24.9717L59.6011 29.3281L58.5681 31.5737H52.3702L58.2088 21.0643L52.3253 10.7345L59.9155 10.4201L60.8586 13.1598Z" fill="#d2d1cc"/>
    <path d="M86.3084 26.3639C87.2066 26.3639 88.1647 26.1394 89.1828 25.6903L89.6768 26.2292L89.0031 30.3162C87.506 31.1546 85.9491 31.6785 84.3322 31.8881C82.1465 31.7684 80.4848 31.1995 79.347 30.1815C78.2092 29.1335 77.6403 27.7113 77.6403 25.9148L77.8649 21.8278L77.82 14.9562H75.0354L74.8109 14.5969L75.1253 10.7345H77.7751V7.14153L84.2873 5.21031L84.7814 5.65943L84.6017 10.7345H89.5421L89.7666 11.1387L89.4522 14.9562H84.467L84.1975 24.0285C84.1975 24.8968 84.3472 25.5106 84.6466 25.8699C84.976 26.1993 85.5299 26.3639 86.3084 26.3639Z" fill="#d2d1cc"/>
    <path d="M106.293 2.56049C109.406 2.56049 111.802 3.33897 113.478 4.89592C115.185 6.45288 116.038 8.66854 116.038 11.5429C116.038 13.7885 115.529 15.7647 114.511 17.4713C113.493 19.148 112.056 20.4505 110.2 21.3787C108.344 22.3069 106.188 22.771 103.733 22.771H101.128L101.397 31.5737H94.0764L94.4806 22.9955L94.0764 2.6054L106.293 2.56049ZM105.035 17.5162C106.173 17.127 107.011 16.5132 107.55 15.6748C108.119 14.8065 108.403 13.6688 108.403 12.2615C108.403 10.7644 108.029 9.65661 107.281 8.93802C106.562 8.21942 105.424 7.83018 103.867 7.7703L101.442 7.90504L101.217 17.3366L105.035 17.5162Z" fill="#d2d1cc"/>
    <path d="M127.191 22.2769L127.505 31.5737H120.409L120.768 22.9506L120.499 0.539443L127.55 0.0454102L127.191 22.2769Z" fill="#d2d1cc"/>
    <path d="M142.662 10.1057C145.147 10.1057 147.079 10.6447 148.456 11.7226C149.833 12.7705 150.522 14.2826 150.522 16.2587C150.522 16.9474 150.492 17.7408 150.432 18.639C150.372 19.5373 150.327 20.3906 150.297 21.199C150.148 23.3548 150.073 24.8369 150.073 25.6453C150.073 26.0645 150.133 26.3639 150.252 26.5436C150.402 26.7232 150.642 26.8131 150.971 26.8131C151.24 26.8131 151.57 26.7532 151.959 26.6334L152.453 27.0376L151.824 30.7653C150.836 31.454 149.624 31.8582 148.186 31.978C147.288 31.8881 146.525 31.5737 145.896 31.0348C145.267 30.4959 144.818 29.7323 144.549 28.7443H144.234C142.737 30.3312 141.21 31.424 139.653 32.0229C137.437 31.9929 135.686 31.3941 134.398 30.2264C133.141 29.0587 132.512 27.4718 132.512 25.4657C132.512 22.3817 134.129 20.5703 137.363 20.0313L144.01 18.9085V17.6061C144.01 16.6779 143.8 16.0192 143.381 15.6299C142.992 15.2107 142.348 15.0012 141.45 15.0012C140.551 15.0012 139.578 15.1958 138.53 15.585C137.512 15.9743 136.33 16.5881 134.982 17.4264L134.533 17.112L133.725 12.4861C135.072 11.7375 136.524 11.1537 138.081 10.7345C139.638 10.3153 141.165 10.1057 142.662 10.1057ZM140.147 22.9955C139.698 23.0853 139.354 23.265 139.114 23.5345C138.905 23.8039 138.8 24.2081 138.8 24.7471C138.8 25.4657 138.979 26.0196 139.339 26.4088C139.728 26.7981 140.252 26.9927 140.911 26.9927C141.869 26.9927 142.887 26.4837 143.965 25.4657L144.01 22.232L140.147 22.9955Z" fill="#d2d1cc"/>
    <path d="M169.758 19.0433C169.818 16.9773 168.979 15.9443 167.243 15.9443C166.195 15.9443 165.057 16.3934 163.83 17.2917V22.2769L164.144 31.5737H157.048L157.362 22.9955L157.093 11.004L163.874 10.465V13.564H164.144C165.761 12.037 167.557 10.9441 169.533 10.2854C171.779 10.2854 173.486 10.8094 174.653 11.8573C175.851 12.8753 176.435 14.3424 176.405 16.2587L176.225 22.2769L176.495 31.5737H169.399L169.758 19.0433Z" fill="#d2d1cc"/>
    <path d="M199.362 22.232L187.595 22.3218C187.805 23.8788 188.344 25.0315 189.212 25.7801C190.08 26.5286 191.308 26.9029 192.895 26.9029C194.482 26.9029 196.578 26.4388 199.182 25.5106L199.721 25.8699L198.644 30.945C196.248 31.6935 194.077 32.0678 192.131 32.0678C188.688 32.0678 185.978 31.0947 184.002 29.1485C182.056 27.2023 181.083 24.5225 181.083 21.1092C181.083 17.6959 182.026 15.0161 183.912 13.0699C185.799 11.0938 188.359 10.1057 191.592 10.1057C194.377 10.1057 196.533 10.8543 198.06 12.3513C199.617 13.8484 200.395 15.9293 200.395 18.5941C200.395 19.4624 200.305 20.3756 200.126 21.3338L199.362 22.232ZM194.242 17.8306C194.242 15.7647 193.344 14.7317 191.547 14.7317C190.529 14.7317 189.691 15.076 189.032 15.7647C188.374 16.4234 187.924 17.3815 187.685 18.639L194.152 18.4594L194.242 17.8306Z" fill="#d2d1cc"/>
    <path d="M214.568 26.3639C215.466 26.3639 216.424 26.1394 217.442 25.6903L217.936 26.2292L217.262 30.3162C215.765 31.1546 214.208 31.6785 212.592 31.8881C210.406 31.7684 208.744 31.1995 207.606 30.1815C206.469 29.1335 205.9 27.7113 205.9 25.9148L206.124 21.8278L206.079 14.9562H203.295L203.07 14.5969L203.385 10.7345H206.034V7.14153L212.547 5.21031L213.041 5.65943L212.861 10.7345H217.801L218.026 11.1387L217.712 14.9562H212.726L212.457 24.0285C212.457 24.8968 212.607 25.5106 212.906 25.8699C213.235 26.1993 213.789 26.3639 214.568 26.3639Z" fill="#d2d1cc"/>
</svg>