<svg id="atarek" width="110" height="32" viewBox="0 0 110 32" fill="none" xmlns="http://www.w3.org/2000/svg">
    <path d="M5.23811 0.242432H11.7941L16.8101 31.0424H11.9701L11.0901 24.9264V25.0144H5.59011L4.71011 31.0424H0.222107L5.23811 0.242432ZM10.5181 20.8344L8.36211 5.61043H8.27411L6.16211 20.8344H10.5181Z" fill="#d2d1cc"/>
    <path d="M23.1227 4.64243H18.0627V0.242432H33.0227V4.64243H27.9627V31.0424H23.1227V4.64243Z" fill="#d2d1cc"/>
    <path d="M37.5661 0.242432H50.7661V4.64243H42.4061V12.7824H49.0501V17.1824H42.4061V26.6424H50.7661V31.0424H37.5661V0.242432Z" fill="#d2d1cc"/>
    <path d="M55.7505 0.242432H62.9225C65.4158 0.242432 67.2345 0.829099 68.3784 2.00243C69.5224 3.14643 70.0945 4.9211 70.0945 7.32643V9.21843C70.0945 12.4158 69.0385 14.4398 66.9265 15.2904V15.3784C68.0998 15.7304 68.9211 16.4491 69.3904 17.5344C69.8891 18.6198 70.1385 20.0718 70.1385 21.8904V27.3024C70.1385 28.1824 70.1678 28.9011 70.2264 29.4584C70.2851 29.9864 70.4318 30.5144 70.6665 31.0424H65.7384C65.5624 30.5438 65.4451 30.0744 65.3865 29.6344C65.3278 29.1944 65.2984 28.4024 65.2984 27.2584V21.6264C65.2984 20.2184 65.0638 19.2358 64.5945 18.6784C64.1545 18.1211 63.3771 17.8424 62.2625 17.8424H60.5905V31.0424H55.7505V0.242432ZM62.3504 13.4424C63.3184 13.4424 64.0371 13.1931 64.5064 12.6944C65.0051 12.1958 65.2544 11.3598 65.2544 10.1864V7.81043C65.2544 6.69577 65.0491 5.8891 64.6385 5.39043C64.2571 4.89177 63.6411 4.64243 62.7905 4.64243H60.5905V13.4424H62.3504Z" fill="#d2d1cc"/>
    <path d="M75.6965 0.242432H88.8965V4.64243H80.5365V12.7824H87.1805V17.1824H80.5365V26.6424H88.8965V31.0424H75.6965V0.242432Z" fill="#d2d1cc"/>
    <path d="M93.8809 0.242432H98.7209V13.2224L104.881 0.242432H109.721L103.957 11.5504L109.809 31.0424H104.749L100.657 17.3144L98.7209 21.2304V31.0424H93.8809V0.242432Z" fill="#d2d1cc"/>
</svg>