<svg id="blocktual" width="213" height="34" viewBox="0 0 213 34" fill="none" xmlns="http://www.w3.org/2000/svg">
    <path d="M0.283447 32.727L5.70608 0.0635986H18.21C20.5705 0.0635986 22.4737 0.43574 23.9197 1.18002C25.3658 1.91367 26.3706 2.91846 26.9341 4.19437C27.5083 5.47028 27.6571 6.91632 27.3807 8.53248C27.1574 9.85092 26.7108 10.9833 26.041 11.9296C25.3817 12.8653 24.5737 13.6308 23.6167 14.2262C22.6598 14.811 21.6337 15.231 20.5386 15.4862L20.4748 15.8052C21.6231 15.8583 22.6757 16.2092 23.6327 16.8578C24.5896 17.5064 25.3126 18.4208 25.8017 19.601C26.2908 20.7706 26.4025 22.1794 26.1366 23.8275C25.8496 25.5181 25.185 27.0385 24.143 28.3889C23.101 29.7286 21.6869 30.7865 19.9006 31.5627C18.125 32.3389 15.9931 32.727 13.5051 32.727H0.283447ZM7.02984 27.7828H13.3935C15.5306 27.7828 17.1468 27.3735 18.2419 26.5548C19.3371 25.7254 19.991 24.6621 20.2036 23.365C20.3631 22.3974 20.2674 21.5255 19.9166 20.7493C19.5657 19.9625 18.9862 19.3458 18.1781 18.8993C17.3701 18.4421 16.36 18.2135 15.1478 18.2135H8.60878L7.02984 27.7828ZM9.34243 13.9551H15.1957C16.2164 13.9551 17.1627 13.769 18.0346 13.3969C18.9171 13.0141 19.6508 12.4772 20.2355 11.7861C20.831 11.0843 21.1978 10.255 21.336 9.29802C21.5593 8.03274 21.2935 6.99074 20.5386 6.17203C19.7837 5.35332 18.5396 4.94397 16.8065 4.94397H10.8097L9.34243 13.9551Z" fill="#d2d1cc"/>
    <path d="M42.0892 0.0635986L36.6666 32.727H30.8931L36.3157 0.0635986H42.0892Z" fill="#d2d1cc"/>
    <path d="M54.7005 33.2055C52.2869 33.2055 50.2774 32.6738 48.6718 31.6106C47.0769 30.5473 45.9552 29.0534 45.3066 27.1289C44.658 25.2044 44.5411 22.9716 44.9557 20.4304C45.3704 17.9211 46.1997 15.7254 47.4438 13.8435C48.6984 11.9615 50.2774 10.5048 52.1806 9.47346C54.0945 8.43147 56.2369 7.91047 58.608 7.91047C61.0216 7.91047 63.0259 8.44741 64.6208 9.52131C66.2156 10.5846 67.3374 12.0785 67.986 14.003C68.6452 15.9275 68.7675 18.1709 68.3528 20.7334C67.9488 23.2321 67.1141 25.4171 65.8488 27.2884C64.5942 29.1597 63.0152 30.6164 61.112 31.6584C59.2087 32.6898 57.0716 33.2055 54.7005 33.2055ZM55.179 28.5803C56.5187 28.5803 57.6936 28.2188 58.7037 27.4957C59.7244 26.7621 60.5591 25.7786 61.2077 24.5452C61.8669 23.3012 62.3241 21.9189 62.5793 20.3985C62.8132 18.9312 62.8185 17.6021 62.5952 16.4112C62.3719 15.2098 61.8935 14.2581 61.1598 13.5564C60.4368 12.844 59.432 12.4878 58.1455 12.4878C56.8058 12.4878 55.6202 12.8599 54.5889 13.6042C53.5681 14.3379 52.7335 15.3267 52.0849 16.5707C51.4363 17.8041 50.9897 19.181 50.7452 20.7015C50.5006 22.1688 50.49 23.4979 50.7133 24.6887C50.9366 25.8796 51.415 26.8259 52.1487 27.5276C52.8823 28.2294 53.8924 28.5803 55.179 28.5803Z" fill="#d2d1cc"/>
    <path d="M83.2448 33.2055C80.7993 33.2055 78.7897 32.6685 77.2161 31.5946C75.6425 30.5207 74.542 29.0375 73.9147 27.1449C73.298 25.2416 73.197 23.0513 73.6116 20.5739C74.0157 18.0859 74.8503 15.8902 76.1156 13.987C77.3915 12.0731 78.9971 10.5846 80.9322 9.52131C82.8673 8.44741 85.0311 7.91047 87.4234 7.91047C89.4117 7.91047 91.1076 8.27729 92.5111 9.01094C93.9252 9.73396 94.9779 10.76 95.669 12.0891C96.3707 13.4075 96.6419 14.9493 96.4824 16.7143H90.9481C90.9268 15.5341 90.56 14.5505 89.8476 13.7637C89.1352 12.9663 88.0932 12.5676 86.7216 12.5676C85.5308 12.5676 84.4356 12.8865 83.4362 13.5245C82.4367 14.1518 81.5914 15.0556 80.9003 16.2358C80.2092 17.416 79.7307 18.8302 79.4649 20.4782C79.1884 22.1475 79.1938 23.5829 79.4808 24.7844C79.7785 25.9753 80.3155 26.895 81.0917 27.5436C81.8785 28.1815 82.8726 28.5005 84.0741 28.5005C84.9247 28.5005 85.7169 28.341 86.4505 28.0221C87.1842 27.6924 87.8274 27.2193 88.3803 26.6026C88.9439 25.9859 89.3851 25.2363 89.7041 24.3538H95.2224C94.7865 26.0869 94.0103 27.6233 92.8939 28.963C91.7881 30.2921 90.4165 31.3341 88.7791 32.089C87.1416 32.8333 85.2969 33.2055 83.2448 33.2055Z" fill="#d2d1cc"/>
    <path d="M106.414 25.0396L107.547 18.0699H108.472L118.95 8.22945H125.697L112.874 20.2868H111.693L106.414 25.0396ZM99.8912 32.727L105.314 0.0635986H111.087L105.665 32.727H99.8912ZM115.266 32.727L109.142 21.5787L113.719 17.5117L122.172 32.727H115.266Z" fill="#d2d1cc"/>
    <path d="M143.124 8.22945L142.375 12.6951H128.308L129.041 8.22945H143.124ZM133.475 2.36024H139.249L135.421 25.3586C135.304 26.1348 135.325 26.7302 135.485 27.1449C135.655 27.5489 135.926 27.8253 136.298 27.9742C136.681 28.1231 137.112 28.1975 137.59 28.1975C137.941 28.1975 138.271 28.1709 138.579 28.1177C138.887 28.054 139.132 28.0061 139.313 27.9742L139.568 32.4878C139.217 32.5941 138.744 32.711 138.148 32.8386C137.564 32.9662 136.862 33.0406 136.043 33.0619C134.576 33.0938 133.3 32.8705 132.215 32.3921C131.141 31.903 130.355 31.1534 129.855 30.1433C129.366 29.1225 129.254 27.8466 129.52 26.3155L133.475 2.36024Z" fill="#d2d1cc"/>
    <path d="M162.538 22.424L164.914 8.22945H170.688L166.605 32.727H161.007L161.74 28.3729H161.485C160.72 29.7445 159.625 30.8663 158.2 31.7382C156.786 32.61 155.159 33.046 153.319 33.046C151.714 33.046 150.358 32.6898 149.252 31.9774C148.147 31.2544 147.36 30.2071 146.892 28.8354C146.435 27.4532 146.366 25.7839 146.685 23.8275L149.3 8.22945H155.074L152.618 22.9343C152.373 24.4867 152.596 25.7201 153.287 26.6345C153.989 27.5489 155.031 28.0061 156.413 28.0061C157.264 28.0061 158.12 27.7988 158.981 27.3841C159.853 26.9694 160.613 26.3527 161.262 25.534C161.911 24.7047 162.336 23.668 162.538 22.424Z" fill="#d2d1cc"/>
    <path d="M180.875 33.2214C179.322 33.2214 177.972 32.945 176.824 32.3921C175.675 31.8285 174.83 30.9992 174.288 29.904C173.756 28.8089 173.623 27.4585 173.889 25.853C174.123 24.4708 174.57 23.3278 175.229 22.424C175.899 21.5202 176.717 20.7972 177.685 20.2549C178.663 19.702 179.726 19.2874 180.875 19.0109C182.034 18.7345 183.214 18.5324 184.415 18.4049C185.883 18.256 187.068 18.1178 187.972 17.9902C188.886 17.8626 189.572 17.6712 190.029 17.416C190.487 17.1502 190.763 16.7462 190.859 16.2039V16.1082C191.05 14.9067 190.859 13.9764 190.285 13.3172C189.711 12.6579 188.754 12.3283 187.414 12.3283C186.01 12.3283 184.83 12.6367 183.873 13.2534C182.916 13.87 182.22 14.5984 181.784 15.4384L176.553 14.6728C177.212 13.1842 178.116 11.9402 179.264 10.9408C180.412 9.93066 181.736 9.17575 183.235 8.67601C184.745 8.16565 186.356 7.91047 188.068 7.91047C189.237 7.91047 190.38 8.04869 191.497 8.32514C192.624 8.60159 193.618 9.05879 194.479 9.69674C195.351 10.3241 195.989 11.18 196.393 12.2645C196.808 13.349 196.877 14.7047 196.6 16.3315L193.873 32.727H188.323L188.897 29.3618H188.706C188.249 30.0422 187.653 30.6802 186.919 31.2756C186.186 31.8604 185.314 32.3336 184.304 32.6951C183.294 33.046 182.151 33.2214 180.875 33.2214ZM183.06 28.979C184.219 28.979 185.261 28.7504 186.186 28.2932C187.111 27.8254 187.871 27.2087 188.466 26.4431C189.062 25.6776 189.434 24.8429 189.583 23.9391L190.061 21.0524C189.849 21.2012 189.519 21.3395 189.073 21.467C188.626 21.5946 188.126 21.7063 187.573 21.802C187.031 21.8977 186.494 21.9827 185.963 22.0572C185.431 22.1316 184.974 22.1954 184.591 22.2485C183.708 22.3655 182.9 22.5569 182.167 22.8227C181.444 23.0885 180.843 23.4607 180.364 23.9391C179.897 24.407 179.604 25.013 179.487 25.7573C179.317 26.8099 179.567 27.6127 180.237 28.1656C180.907 28.7079 181.848 28.979 183.06 28.979Z" fill="#d2d1cc"/>
    <path d="M212.222 0.0635986L206.799 32.727H201.026L206.449 0.0635986H212.222Z" fill="#d2d1cc"/>
</svg>