<svg id="poroni" width="147" height="29" viewBox="0 0 147 29" fill="none" xmlns="http://www.w3.org/2000/svg">
    <path d="M0.290405 28.07V1.21502H8.77741C10.7454 1.21502 12.4811 1.47469 13.9844 1.99402C15.5151 2.48602 16.7041 3.33336 17.5514 4.53602C18.3987 5.71136 18.8224 7.29669 18.8224 9.29202C18.8224 11.2327 18.3851 12.8317 17.5104 14.089C16.6631 15.3464 15.4741 16.2894 13.9434 16.918C12.4401 17.5194 10.7181 17.82 8.77741 17.82H4.39041V28.07H0.290405ZM4.39041 14.499H8.36741C10.5541 14.499 12.1667 14.0754 13.2054 13.228C14.2441 12.3807 14.7634 11.0687 14.7634 9.29202C14.7634 7.48802 14.2304 6.24436 13.1644 5.56102C12.0984 4.85036 10.4994 4.49502 8.36741 4.49502H4.39041V14.499Z" fill="#d2d1cc"/>
    <path d="M34.5094 28.562C32.4594 28.562 30.6417 28.0154 29.0564 26.922C27.4984 25.8014 26.2684 24.2024 25.3664 22.125C24.4917 20.0204 24.0544 17.492 24.0544 14.54C24.0544 11.6154 24.4917 9.12802 25.3664 7.07802C26.2684 5.00069 27.4984 3.42902 29.0564 2.36302C30.6417 1.26969 32.4594 0.723022 34.5094 0.723022C36.5594 0.723022 38.3634 1.26969 39.9214 2.36302C41.5067 3.42902 42.7367 5.00069 43.6114 7.07802C44.5134 9.12802 44.9644 11.6154 44.9644 14.54C44.9644 17.492 44.5134 20.0204 43.6114 22.125C42.7367 24.2024 41.5067 25.8014 39.9214 26.922C38.3634 28.0154 36.5594 28.562 34.5094 28.562ZM34.5094 24.995C35.7667 24.995 36.8601 24.585 37.7894 23.765C38.7187 22.9177 39.4431 21.715 39.9624 20.157C40.4817 18.599 40.7414 16.7267 40.7414 14.54C40.7414 12.3534 40.4817 10.5084 39.9624 9.00502C39.4431 7.47436 38.7187 6.31269 37.7894 5.52002C36.8601 4.70002 35.7667 4.29002 34.5094 4.29002C33.2521 4.29002 32.1587 4.70002 31.2294 5.52002C30.3001 6.31269 29.5757 7.47436 29.0564 9.00502C28.5371 10.5084 28.2774 12.3534 28.2774 14.54C28.2774 16.7267 28.5371 18.599 29.0564 20.157C29.5757 21.715 30.3001 22.9177 31.2294 23.765C32.1587 24.585 33.2521 24.995 34.5094 24.995Z" fill="#d2d1cc"/>
    <path d="M51.7954 28.07V1.21502H60.4464C62.305 1.21502 63.9587 1.46102 65.4074 1.95302C66.856 2.41769 67.9904 3.22402 68.8104 4.37202C69.6577 5.52002 70.0814 7.05069 70.0814 8.96402C70.0814 10.8227 69.6577 12.3534 68.8104 13.556C67.9904 14.7587 66.856 15.6607 65.4074 16.262C63.9587 16.8634 62.305 17.164 60.4464 17.164H55.8954V28.07H51.7954ZM55.8954 13.843H59.9544C61.9224 13.843 63.4257 13.4467 64.4644 12.654C65.503 11.834 66.0224 10.604 66.0224 8.96402C66.0224 7.32402 65.503 6.17602 64.4644 5.52002C63.4257 4.83669 61.9224 4.49502 59.9544 4.49502H55.8954V13.843ZM59.6674 16.057L62.7424 13.72L71.0244 28.07H66.3914L59.6674 16.057Z" fill="#d2d1cc"/>
    <path d="M86.1374 28.562C84.0874 28.562 82.2697 28.0154 80.6844 26.922C79.1264 25.8014 77.8964 24.2024 76.9944 22.125C76.1197 20.0204 75.6824 17.492 75.6824 14.54C75.6824 11.6154 76.1197 9.12802 76.9944 7.07802C77.8964 5.00069 79.1264 3.42902 80.6844 2.36302C82.2697 1.26969 84.0874 0.723022 86.1374 0.723022C88.1874 0.723022 89.9914 1.26969 91.5494 2.36302C93.1347 3.42902 94.3647 5.00069 95.2394 7.07802C96.1414 9.12802 96.5924 11.6154 96.5924 14.54C96.5924 17.492 96.1414 20.0204 95.2394 22.125C94.3647 24.2024 93.1347 25.8014 91.5494 26.922C89.9914 28.0154 88.1874 28.562 86.1374 28.562ZM86.1374 24.995C87.3947 24.995 88.488 24.585 89.4174 23.765C90.3467 22.9177 91.071 21.715 91.5904 20.157C92.1097 18.599 92.3694 16.7267 92.3694 14.54C92.3694 12.3534 92.1097 10.5084 91.5904 9.00502C91.071 7.47436 90.3467 6.31269 89.4174 5.52002C88.488 4.70002 87.3947 4.29002 86.1374 4.29002C84.88 4.29002 83.7867 4.70002 82.8574 5.52002C81.928 6.31269 81.2037 7.47436 80.6844 9.00502C80.165 10.5084 79.9054 12.3534 79.9054 14.54C79.9054 16.7267 80.165 18.599 80.6844 20.157C81.2037 21.715 81.928 22.9177 82.8574 23.765C83.7867 24.585 84.88 24.995 86.1374 24.995Z" fill="#d2d1cc"/>
    <path d="M102.849 28.07V1.21502H107.236L115.067 17.164L117.568 22.822H117.691C117.609 21.4554 117.486 20.0067 117.322 18.476C117.186 16.9454 117.117 15.4557 117.117 14.007V1.21502H121.053V28.07H116.666L108.835 12.121L106.334 6.46302H106.211C106.293 7.85702 106.403 9.30569 106.539 10.809C106.703 12.285 106.785 13.7474 106.785 15.196V28.07H102.849Z" fill="#d2d1cc"/>
    <path d="M129.155 28.07V24.626H135.715V4.65902H129.155V1.21502H146.375V4.65902H139.815V24.626H146.375V28.07H129.155Z" fill="#d2d1cc"/>
</svg>