<svg id="uptrusts" width="201" height="29" viewBox="0 0 201 29" fill="none" xmlns="http://www.w3.org/2000/svg">
    <path d="M13.25 28.9226C9.918 28.9226 7.48133 28.1859 5.94 26.7126C4.39867 25.2166 3.628 23.2446 3.628 20.7966V2.26655L0.5 1.79055V1.04255H10.496V1.79055L7.368 2.26655V20.7966C7.368 23.0179 7.99133 24.7292 9.238 25.9305C10.4847 27.1092 12.3773 27.6986 14.916 27.6986C19.7213 27.6986 22.124 25.3979 22.124 20.7966V3.11655L18.962 1.79055V1.04255H26.204V1.79055L22.94 3.11655V20.7966C22.94 23.5166 22.1807 25.5565 20.662 26.9165C19.1433 28.2539 16.6727 28.9226 13.25 28.9226Z" fill="#d2d1cc"/>
    <path d="M29.4542 27.5286L32.5822 27.0186V2.26655L29.4542 1.79055V1.04255H40.1302C43.4849 1.04255 45.9782 1.75655 47.6102 3.18455C49.2422 4.61255 50.0582 6.67522 50.0582 9.37255C50.0582 12.0699 49.2422 14.1326 47.6102 15.5605C45.9782 16.9886 43.4849 17.7026 40.1302 17.7026H36.3222V27.0186L39.4502 27.5286V28.2425H29.4542V27.5286ZM39.6542 16.8865C43.8475 16.8865 45.9442 14.6085 45.9442 10.0525V8.69255C45.9442 4.15922 43.8475 1.89255 39.6542 1.89255H36.3222V16.8865H39.6542Z" fill="#d2d1cc"/>
    <path d="M59.2584 28.2425V27.5286L62.3864 27.0186V1.89255H56.7764L54.1924 8.62455H53.2064V1.04255H75.3404V8.62455H74.3204L71.7704 1.89255H66.1264V27.0186L69.2544 27.5286V28.2425H59.2584Z" fill="#d2d1cc"/>
    <path d="M98.297 28.5826C97.0277 28.5826 96.0757 28.2766 95.441 27.6646C94.8063 27.0526 94.3757 26.0099 94.149 24.5366L93.503 19.9806C93.2763 18.4392 92.7437 17.2379 91.905 16.3766C91.089 15.4926 89.8083 15.0506 88.063 15.0506H85.411V27.0186L88.539 27.5286V28.2425H78.543V27.5286L81.671 27.0186V2.26655L78.543 1.79055V1.04255H88.063C91.7577 1.04255 94.4323 1.62055 96.087 2.77655C97.7417 3.93255 98.569 5.68922 98.569 8.04655C98.569 11.9452 96.2117 14.2006 91.497 14.8126V15.0166C93.2423 15.2659 94.6364 15.8892 95.679 16.8865C96.7443 17.8839 97.413 19.2099 97.685 20.8645L98.127 23.7885C98.3083 25.0579 98.5123 25.9192 98.739 26.3726C98.9883 26.8259 99.3624 27.0526 99.861 27.0526C100.201 27.0526 100.564 26.9506 100.949 26.7465C101.334 26.5199 101.697 26.2366 102.037 25.8966L102.615 26.5086C101.958 27.2565 101.278 27.7892 100.575 28.1066C99.8723 28.4239 99.113 28.5826 98.297 28.5826ZM89.219 14.2345C90.8737 14.2345 92.1543 13.7359 93.061 12.7385C93.9903 11.7185 94.455 10.2225 94.455 8.25055V7.53655C94.455 3.77388 92.3243 1.89255 88.063 1.89255H85.411V14.2345H89.219Z" fill="#d2d1cc"/>
    <path d="M116.242 28.9226C112.91 28.9226 110.473 28.1859 108.932 26.7126C107.391 25.2166 106.62 23.2446 106.62 20.7966V2.26655L103.492 1.79055V1.04255H113.488V1.79055L110.36 2.26655V20.7966C110.36 23.0179 110.983 24.7292 112.23 25.9305C113.477 27.1092 115.369 27.6986 117.908 27.6986C122.713 27.6986 125.116 25.3979 125.116 20.7966V3.11655L121.954 1.79055V1.04255H129.196V1.79055L125.932 3.11655V20.7966C125.932 23.5166 125.173 25.5565 123.654 26.9165C122.135 28.2539 119.665 28.9226 116.242 28.9226Z" fill="#d2d1cc"/>
    <path d="M143.224 28.9226C141.116 28.9226 139.042 28.3219 137.002 27.1206L134.112 28.5826H133.364V19.8446H134.112L137.036 26.1686C138.918 27.5059 141.071 28.1746 143.496 28.1746C145.491 28.1746 147.134 27.6532 148.426 26.6105C149.741 25.5452 150.398 24.0606 150.398 22.1566C150.398 20.7739 149.979 19.6859 149.14 18.8925C148.302 18.0765 146.942 17.4305 145.06 16.9545L139.416 15.4925C137.444 14.9712 135.96 14.0872 134.962 12.8406C133.965 11.5712 133.466 10.0752 133.466 8.35255C133.466 6.78855 133.772 5.40588 134.384 4.20455C135.019 2.98055 135.937 2.03988 137.138 1.38255C138.34 0.702549 139.768 0.362549 141.422 0.362549C143.485 0.362549 145.332 0.713882 146.964 1.41655L149.446 0.362549H150.194V7.29855H149.446L146.998 2.33455C145.298 1.51855 143.451 1.11055 141.456 1.11055C139.484 1.11055 137.932 1.62055 136.798 2.64055C135.665 3.63788 135.098 4.96388 135.098 6.61855C135.098 7.84255 135.495 8.80588 136.288 9.50855C137.104 10.2112 138.294 10.7665 139.858 11.1745L145.944 12.7726C147.916 13.2712 149.378 14.1325 150.33 15.3566C151.305 16.5579 151.792 18.3939 151.792 20.8645C151.792 23.3806 151.01 25.3526 149.446 26.7806C147.905 28.2085 145.831 28.9226 143.224 28.9226Z" fill="#d2d1cc"/>
    <path d="M161.653 28.2425V27.5286L164.781 27.0186V1.89255H159.171L156.587 8.62455H155.601V1.04255H177.735V8.62455H176.715L174.165 1.89255H168.521V27.0186L171.649 27.5286V28.2425H161.653Z" fill="#d2d1cc"/>
    <path d="M191.715 28.9226C189.607 28.9226 187.533 28.3219 185.493 27.1206L182.603 28.5826H181.855V19.8446H182.603L185.527 26.1686C187.409 27.5059 189.562 28.1746 191.987 28.1746C193.982 28.1746 195.625 27.6532 196.917 26.6105C198.232 25.5452 198.889 24.0606 198.889 22.1566C198.889 20.7739 198.47 19.6859 197.631 18.8925C196.793 18.0765 195.433 17.4305 193.551 16.9545L187.907 15.4925C185.935 14.9712 184.451 14.0872 183.453 12.8406C182.456 11.5712 181.957 10.0752 181.957 8.35255C181.957 6.78855 182.263 5.40588 182.875 4.20455C183.51 2.98055 184.428 2.03988 185.629 1.38255C186.831 0.702549 188.259 0.362549 189.913 0.362549C191.976 0.362549 193.823 0.713882 195.455 1.41655L197.937 0.362549H198.685V7.29855H197.937L195.489 2.33455C193.789 1.51855 191.942 1.11055 189.947 1.11055C187.975 1.11055 186.423 1.62055 185.289 2.64055C184.156 3.63788 183.589 4.96388 183.589 6.61855C183.589 7.84255 183.986 8.80588 184.779 9.50855C185.595 10.2112 186.785 10.7665 188.349 11.1745L194.435 12.7726C196.407 13.2712 197.869 14.1325 198.821 15.3566C199.796 16.5579 200.283 18.3939 200.283 20.8645C200.283 23.3806 199.501 25.3526 197.937 26.7806C196.396 28.2085 194.322 28.9226 191.715 28.9226Z" fill="#d2d1cc"/>
</svg>