<svg id="zekras" width="148" height="34" viewBox="0 0 148 34" fill="none" xmlns="http://www.w3.org/2000/svg">
    <path d="M0.596191 32.6986V27.3306L18.3282 5.85861L18.4162 6.78261L17.0962 5.02261L17.9762 5.72661H1.12419V0.578613H25.2362V5.94661L7.46019 27.3746L7.32819 26.3626L8.78019 28.3426L7.72419 27.5506H25.4562V32.6986H0.596191Z" fill="#d2d1cc"/>
    <path d="M41.0136 33.5346C38.9603 33.5346 37.1563 33.1826 35.6016 32.4786C34.0763 31.7746 32.8003 30.8359 31.7736 29.6626C30.7763 28.4599 30.0136 27.1253 29.4856 25.6586C28.987 24.1919 28.7376 22.6959 28.7376 21.1706V20.3346C28.7376 18.7506 28.987 17.2253 29.4856 15.7586C30.0136 14.2626 30.7763 12.9426 31.7736 11.7986C32.8003 10.6253 34.0616 9.70128 35.5576 9.02661C37.0536 8.32261 38.7843 7.97061 40.7496 7.97061C43.331 7.97061 45.487 8.54261 47.2176 9.68661C48.9776 10.8013 50.2976 12.2826 51.1776 14.1306C52.0576 15.9493 52.4976 17.9146 52.4976 20.0266V22.2266H31.3336V18.4866H48.6696L46.7776 20.3346C46.7776 18.8093 46.5576 17.5039 46.1176 16.4186C45.6776 15.3333 45.003 14.4973 44.0936 13.9106C43.2136 13.3239 42.099 13.0306 40.7496 13.0306C39.4003 13.0306 38.2563 13.3386 37.3176 13.9546C36.379 14.5706 35.6603 15.4653 35.1616 16.6386C34.6923 17.7826 34.4576 19.1613 34.4576 20.7746C34.4576 22.2706 34.6923 23.6053 35.1616 24.7786C35.631 25.9226 36.3496 26.8319 37.3176 27.5066C38.2856 28.1519 39.5176 28.4746 41.0136 28.4746C42.5096 28.4746 43.727 28.1813 44.6656 27.5946C45.6043 26.9786 46.2056 26.2306 46.4696 25.3506H52.1016C51.7496 26.9933 51.075 28.4306 50.0776 29.6626C49.0803 30.8946 47.8043 31.8479 46.2496 32.5226C44.7243 33.1973 42.979 33.5346 41.0136 33.5346Z" fill="#d2d1cc"/>
    <path d="M74.3268 32.6986L66.3188 21.5226H62.7548L72.9188 8.80661H79.2988L69.9268 20.5546L70.0588 17.4746L81.2348 32.6986H74.3268ZM57.6068 32.6986V0.578613H63.7228V32.6986H57.6068Z" fill="#d2d1cc"/>
    <path d="M84.763 32.6986V8.80661H89.603V18.9266H89.471C89.471 15.4946 90.2044 12.8986 91.671 11.1386C93.1377 9.37861 95.2937 8.49861 98.139 8.49861H99.019V13.8226H97.347C95.2937 13.8226 93.695 14.3799 92.551 15.4946C91.4364 16.5799 90.879 18.1639 90.879 20.2466V32.6986H84.763Z" fill="#d2d1cc"/>
    <path d="M117.458 32.6986V25.6146H116.446V17.7386C116.446 16.3599 116.108 15.3333 115.434 14.6586C114.759 13.9839 113.718 13.6466 112.31 13.6466C111.576 13.6466 110.696 13.6613 109.67 13.6906C108.643 13.7199 107.602 13.7639 106.546 13.8226C105.519 13.8519 104.595 13.8959 103.774 13.9546V8.76261C104.448 8.70395 105.211 8.64528 106.062 8.58661C106.912 8.52795 107.778 8.49861 108.658 8.49861C109.567 8.46928 110.418 8.45461 111.21 8.45461C113.674 8.45461 115.712 8.77728 117.326 9.42261C118.968 10.0679 120.2 11.0799 121.022 12.4586C121.872 13.8373 122.298 15.6413 122.298 17.8706V32.6986H117.458ZM109.758 33.3146C108.027 33.3146 106.502 33.0066 105.182 32.3906C103.891 31.7746 102.879 30.8946 102.146 29.7506C101.442 28.6066 101.09 27.2279 101.09 25.6146C101.09 23.8546 101.515 22.4173 102.366 21.3026C103.246 20.1879 104.463 19.3519 106.018 18.7946C107.602 18.2373 109.45 17.9586 111.562 17.9586H117.106V21.6106H111.474C110.066 21.6106 108.98 21.9626 108.218 22.6666C107.484 23.3413 107.118 24.2213 107.118 25.3066C107.118 26.3919 107.484 27.2719 108.218 27.9466C108.98 28.6213 110.066 28.9586 111.474 28.9586C112.324 28.9586 113.102 28.8119 113.806 28.5186C114.539 28.1959 115.14 27.6679 115.61 26.9346C116.108 26.1719 116.387 25.1453 116.446 23.8546L117.942 25.5706C117.795 27.2426 117.384 28.6506 116.71 29.7946C116.064 30.9386 115.155 31.8186 113.982 32.4346C112.838 33.0213 111.43 33.3146 109.758 33.3146Z" fill="#d2d1cc"/>
    <path d="M137.517 33.4466C134.232 33.4466 131.65 32.7573 129.773 31.3786C127.925 29.9706 126.957 28.0346 126.869 25.5706H132.369C132.457 26.3919 132.912 27.1399 133.733 27.8146C134.554 28.4893 135.845 28.8266 137.605 28.8266C139.072 28.8266 140.23 28.5626 141.081 28.0346C141.961 27.5066 142.401 26.7879 142.401 25.8786C142.401 25.0866 142.064 24.4559 141.389 23.9866C140.744 23.5173 139.629 23.2093 138.045 23.0626L135.933 22.8426C133.264 22.5493 131.21 21.7866 129.773 20.5546C128.336 19.3226 127.617 17.6799 127.617 15.6266C127.617 13.9839 128.028 12.6053 128.849 11.4906C129.67 10.3759 130.8 9.53995 132.237 8.98261C133.704 8.39595 135.376 8.10261 137.253 8.10261C140.186 8.10261 142.562 8.74795 144.381 10.0386C146.2 11.3293 147.153 13.2213 147.241 15.7146H141.741C141.682 14.8933 141.272 14.1893 140.509 13.6026C139.746 13.0159 138.646 12.7226 137.209 12.7226C135.918 12.7226 134.921 12.9719 134.217 13.4706C133.513 13.9693 133.161 14.6146 133.161 15.4066C133.161 16.1693 133.44 16.7559 133.997 17.1666C134.584 17.5773 135.522 17.8559 136.813 18.0026L138.925 18.2226C141.741 18.5159 143.941 19.2933 145.525 20.5546C147.138 21.8159 147.945 23.5173 147.945 25.6586C147.945 27.2426 147.505 28.6213 146.625 29.7946C145.774 30.9386 144.572 31.8333 143.017 32.4786C141.462 33.1239 139.629 33.4466 137.517 33.4466Z" fill="#d2d1cc"/>
</svg>