<svg id="youtube" width="19" height="13" viewBox="0 0 19 13" fill="none" xmlns="http://www.w3.org/2000/svg">
    <path d="M18.5992 2.02959C18.491 1.63697 18.2793 1.27898 17.9852 0.991472C17.6911 0.703962 17.3248 0.497009 16.9232 0.391327C15.444 1.18601e-07 9.5 0 9.5 0C9.5 0 3.55603 1.18601e-07 2.07683 0.391327C1.67516 0.497009 1.30894 0.703962 1.01481 0.991472C0.720679 1.27898 0.508962 1.63697 0.400846 2.02959C0.124646 3.50421 -0.00938718 5.0009 0.000510554 6.5C-0.00938718 7.9991 0.124646 9.49579 0.400846 10.9704C0.508962 11.363 0.720679 11.721 1.01481 12.0085C1.30894 12.296 1.67516 12.503 2.07683 12.6087C3.55603 13 9.5 13 9.5 13C9.5 13 15.444 13 16.9232 12.6087C17.3248 12.503 17.6911 12.296 17.9852 12.0085C18.2793 11.721 18.491 11.363 18.5992 10.9704C18.8754 9.49579 19.0094 7.9991 18.9995 6.5C19.0094 5.0009 18.8754 3.50421 18.5992 2.02959ZM7.6001 9.28572V3.71429L12.5331 6.5L7.6001 9.28572Z" fill="#b7B5ad"/>
</svg>